<svg xmlns="http://www.w3.org/2000/svg" width="702" height="312" style="
        width:702px;
        height:312px;
        background: #FFF;
        fill: none;
">
        <svg xmlns="http://www.w3.org/2000/svg"/>
        
        <svg xmlns="http://www.w3.org/2000/svg" class="role-diagram-draw-area" style="overflow: visible;"><g class="shapes-region" style="stroke: black; fill: none;"><g class="composite-shape" data-amt="diagram/shapes/plot" style="transform: matrix(1, 0, 0, 1, 49.5, 40.3333);"><g><g/><g><g class="test-xti" style="font-family: Asana-Math, Asana;"><line x1="0" y1="232.56907860172544" x2="547" y2="232.56907860172544" fill="none" stroke="rgb(50,50,50)" stroke-width="1"/><line x1="66.1625762950285" y1="228.56907860172544" x2="66.1625762950285" y2="236.56907860172544" fill="none" stroke="rgb(50,50,50)" stroke-width="1"/><line x1="143.30870986682115" y1="228.56907860172544" x2="143.30870986682115" y2="236.56907860172544" fill="none" stroke="rgb(50,50,50)" stroke-width="1"/><line x1="220.45484343861378" y1="228.56907860172544" x2="220.45484343861378" y2="236.56907860172544" fill="none" stroke="rgb(50,50,50)" stroke-width="1"/><line x1="374.74711058219907" y1="228.56907860172544" x2="374.74711058219907" y2="236.56907860172544" fill="none" stroke="rgb(50,50,50)" stroke-width="1"/><line x1="451.89324415399176" y1="228.56907860172544" x2="451.89324415399176" y2="236.56907860172544" fill="none" stroke="rgb(50,50,50)" stroke-width="1"/><line x1="529.0393777257843" y1="228.56907860172544" x2="529.0393777257843" y2="236.56907860172544" fill="none" stroke="rgb(50,50,50)" stroke-width="1"/><path d="M542,228.96907860172544 L550,232.56907860172544 L542,236.16907860172543 Z" stroke="none" stroke-width="1" fill="rgb(50,50,50)"/></g><g class="test-yti" style="font-family: Asana-Math, Asana;"><line x1="297.60097701040644" y1="4" x2="297.60097701040644" y2="256.1" fill="none" stroke="rgb(50,50,50)" stroke-width="1"/><line x1="293.60097701040644" y1="24.27451795788531" x2="301.60097701040644" y2="24.27451795788531" fill="none" stroke="rgb(50,50,50)" stroke-width="1"/><path d="M294.0009770104064,9 L297.60097701040644,1 L301.20097701040646,9 Z" stroke="none" stroke-width="1" fill="rgb(50,50,50)"/></g><g class="test-plot-expression"><defs><clipPath id="cpwl1swvyqn"><rect x="1" y="1" width="549" height="254.10000000000002"/></clipPath></defs><g clip-path="url(#cpwl1swvyqn)"><path d=" M0.00,-256.10 L0.50,-256.10 L1.00,-256.10 L1.50,-256.10 L2.01,-256.10 L2.51,-256.10 L3.01,-256.10 L3.51,-256.10 L4.01,-256.10 L4.51,-256.10 L5.01,-256.10 L5.52,-256.10 L6.02,-256.10 L6.52,-256.10 L7.02,-256.10 L7.52,-256.10 L8.02,-256.10 L8.52,-256.10 L9.02,-256.10 L9.53,-256.10 L10.03,-256.10 L10.53,-256.10 L11.03,-256.10 L11.53,-256.10 L12.03,-256.10 L12.53,-256.10 L13.04,-256.10 L13.54,-256.10 L14.04,-256.10 L14.54,-256.10 L15.04,-256.10 L15.54,-256.10 L16.04,-256.10 L16.55,-256.10 L17.05,-256.10 L17.55,-256.10 L18.05,-256.10 L18.55,-256.10 L19.05,-256.10 L19.55,-256.10 L20.05,-256.10 L20.56,-256.10 L21.06,-256.10 L21.56,-256.10 L22.06,-256.10 L22.56,-256.10 L23.06,-256.10 L23.56,-256.10 L24.07,-256.10 L24.57,-256.10 L25.07,-256.10 L25.57,-256.10 L26.07,-256.10 L26.57,-256.10 L27.07,-256.10 L27.58,-256.10 L28.08,-256.10 L28.58,-256.10 L29.08,-256.10 L29.58,-256.10 L30.08,-256.10 L30.58,-256.10 L31.08,-256.10 L31.59,-256.10 L32.09,-256.10 L32.59,-256.10 L33.09,-256.10 L33.59,-256.10 L34.09,-256.10 L34.59,-256.10 L35.10,-256.10 L35.60,-256.10 L36.10,-256.10 L36.60,-256.10 L37.10,-256.10 L37.60,-256.10 L38.10,-256.10 L38.61,-256.10 L39.11,-256.10 L39.61,-256.10 L40.11,-256.10 L40.61,-256.10 L41.11,-256.10 L41.61,-256.10 L42.11,-256.10 L42.62,-256.10 L43.12,-256.10 L43.62,-256.10 L44.12,-256.10 L44.62,-256.10 L45.12,-256.10 L45.62,-256.10 L46.13,-256.10 L46.63,-256.10 L47.13,-256.10 L47.63,-256.10 L48.13,-256.10 L48.63,-256.10 L49.13,-256.10 L49.64,-256.10 L50.14,-256.10 L50.64,-256.10 L51.14,-256.10 L51.64,-256.10 L52.14,-256.10 L52.64,-256.10 L53.14,-256.10 L53.65,-256.10 L54.15,-256.10 L54.65,-256.10 L55.15,-256.10 L55.65,-256.10 L56.15,-256.10 L56.65,-256.10 L57.16,-256.10 L57.66,-256.10 L58.16,-256.10 L58.66,-256.10 L59.16,-256.10 L59.66,-256.10 L60.16,-256.10 L60.67,-256.10 L61.17,-256.10 L61.67,-256.10 L62.17,-256.10 L62.67,-256.10 L63.17,-256.10 L63.67,-256.10 L64.17,-256.10 L64.68,-256.10 L65.18,-256.10 L65.68,-256.10 L66.18,-256.10 L66.68,-256.10 L67.18,-256.10 L67.68,-256.10 L68.19,-256.10 L68.69,-256.10 L69.19,-256.10 L69.69,-256.10 L70.19,-256.10 L70.69,-256.10 L71.19,-256.10 L71.70,-256.10 L72.20,-256.10 L72.70,-256.10 L73.20,-256.10 L73.70,-256.10 L74.20,-256.10 L74.70,-256.10 L75.20,-256.10 L75.71,-256.10 L76.21,-256.10 L76.71,-256.10 L77.21,-256.10 L77.71,-256.10 L78.21,-256.10 L78.71,-256.10 L79.22,-256.10 L79.72,-256.10 L80.22,-256.10 L80.72,-256.10 L81.22,-256.10 L81.72,-256.10 L82.22,-256.10 L82.73,-256.10 L83.23,-256.10 L83.73,-256.10 L84.23,-256.10 L84.73,-256.10 L85.23,-256.10 L85.73,-256.10 L86.23,-256.10 L86.74,-256.10 L87.24,-256.10 L87.74,-256.10 L88.24,-256.10 L88.74,-256.10 L89.24,-256.10 L89.74,-256.10 L90.25,-256.10 L90.75,-256.10 L91.25,-256.10 L91.75,-256.10 L92.25,-256.10 L92.75,-256.10 L93.25,-256.10 L93.76,-256.10 L94.26,-256.10 L94.76,-256.10 L95.26,-256.10 L95.76,-256.10 L96.26,-256.10 L96.76,-256.10 L97.26,-256.10 L97.77,-256.10 L98.27,-256.10 L98.77,-256.10 L99.27,-256.10 L99.77,-256.10 L100.27,-256.10 L100.77,-256.10 L101.28,-256.10 L101.78,-256.10 L102.28,-256.10 L102.78,-256.10 L103.28,-256.10 L103.78,-256.10 L104.28,-256.10 L104.79,-256.10 L105.29,-256.10 L105.79,-256.10 L106.29,-256.10 L106.79,-256.10 L107.29,-256.10 L107.79,-256.10 L108.29,-256.10 L108.80,-256.10 L109.30,-256.10 L109.80,-256.10 L110.30,-256.10 L110.80,-255.93 L111.30,-253.31 L111.80,-250.70 L112.31,-248.09 L112.81,-245.49 L113.31,-242.90 L113.81,-240.32 L114.31,-237.74 L114.81,-235.17 L115.31,-232.61 L115.82,-230.06 L116.32,-227.51 L116.82,-224.97 L117.32,-222.43 L117.82,-219.90 L118.32,-217.38 L118.82,-214.87 L119.32,-212.37 L119.83,-209.87 L120.33,-207.37 L120.83,-204.89 L121.33,-202.41 L121.83,-199.94 L122.33,-197.48 L122.83,-195.02 L123.34,-192.57 L123.84,-190.13 L124.34,-187.69 L124.84,-185.26 L125.34,-182.84 L125.84,-180.43 L126.34,-178.02 L126.85,-175.62 L127.35,-173.23 L127.85,-170.84 L128.35,-168.46 L128.85,-166.09 L129.35,-163.72 L129.85,-161.36 L130.35,-159.01 L130.86,-156.67 L131.36,-154.33 L131.86,-152.00 L132.36,-149.68 L132.86,-147.36 L133.36,-145.05 L133.86,-142.75 L134.37,-140.46 L134.87,-138.17 L135.37,-135.89 L135.87,-133.61 L136.37,-131.35 L136.87,-129.09 L137.37,-126.83 L137.88,-124.59 L138.38,-122.35 L138.88,-120.12 L139.38,-117.89 L139.88,-115.68 L140.38,-113.46 L140.88,-111.26 L141.38,-109.06 L141.89,-106.88 L142.39,-104.69 L142.89,-102.52 L143.39,-100.35 L143.89,-98.19 L144.39,-96.03 L144.89,-93.89 L145.40,-91.75 L145.90,-89.61 L146.40,-87.49 L146.90,-85.37 L147.40,-83.26 L147.90,-81.15 L148.40,-79.05 L148.91,-76.96 L149.41,-74.88 L149.91,-72.80 L150.41,-70.73 L150.91,-68.67 L151.41,-66.61 L151.91,-64.57 L152.41,-62.52 L152.92,-60.49 L153.42,-58.46 L153.92,-56.44 L154.42,-54.43 L154.92,-52.42 L155.42,-50.42 L155.92,-48.43 L156.43,-46.44 L156.93,-44.47 L157.43,-42.50 L157.93,-40.53 L158.43,-38.57 L158.93,-36.62 L159.43,-34.68 L159.94,-32.75 L160.44,-30.82 L160.94,-28.89 L161.44,-26.98 L161.94,-25.07 L162.44,-23.17 L162.94,-21.28 L163.44,-19.39 L163.95,-17.51 L164.45,-15.64 L164.95,-13.77 L165.45,-11.91 L165.95,-10.06 L166.45,-8.22 L166.95,-6.38 L167.46,-4.55 L167.96,-2.73 L168.46,-0.91 L168.96,0.90 L169.46,2.70 L169.96,4.50 L170.46,6.29 L170.97,8.07 L171.47,9.84 L171.97,11.61 L172.47,13.37 L172.97,15.12 L173.47,16.87 L173.97,18.61 L174.47,20.34 L174.98,22.06 L175.48,23.78 L175.98,25.49 L176.48,27.20 L176.98,28.89 L177.48,30.58 L177.98,32.26 L178.49,33.94 L178.99,35.61 L179.49,37.27 L179.99,38.92 L180.49,40.57 L180.99,42.21 L181.49,43.85 L182.00,45.47 L182.50,47.09 L183.00,48.70 L183.50,50.31 L184.00,51.91 L184.50,53.50 L185.00,55.08 L185.51,56.66 L186.01,58.23 L186.51,59.79 L187.01,61.35 L187.51,62.90 L188.01,64.44 L188.51,65.97 L189.01,67.50 L189.52,69.02 L190.02,70.54 L190.52,72.04 L191.02,73.54 L191.52,75.04 L192.02,76.52 L192.52,78.00 L193.03,79.47 L193.53,80.94 L194.03,82.39 L194.53,83.84 L195.03,85.29 L195.53,86.72 L196.03,88.15 L196.54,89.57 L197.04,90.99 L197.54,92.40 L198.04,93.80 L198.54,95.19 L199.04,96.58 L199.54,97.96 L200.04,99.33 L200.55,100.70 L201.05,102.06 L201.55,103.41 L202.05,104.75 L202.55,106.09 L203.05,107.42 L203.55,108.75 L204.06,110.06 L204.56,111.37 L205.06,112.68 L205.56,113.97 L206.06,115.26 L206.56,116.54 L207.06,117.82 L207.57,119.08 L208.07,120.34 L208.57,121.60 L209.07,122.84 L209.57,124.08 L210.07,125.31 L210.57,126.54 L211.07,127.76 L211.58,128.97 L212.08,130.17 L212.58,131.37 L213.08,132.56 L213.58,133.74 L214.08,134.92 L214.58,136.09 L215.09,137.25 L215.59,138.40 L216.09,139.55 L216.59,140.69 L217.09,141.83 L217.59,142.95 L218.09,144.07 L218.60,145.19 L219.10,146.29 L219.60,147.39 L220.10,148.48 L220.60,149.57 L221.10,150.64 L221.60,151.71 L222.10,152.78 L222.61,153.83 L223.11,154.88 L223.61,155.92 L224.11,156.96 L224.61,157.99 L225.11,159.01 L225.61,160.02 L226.12,161.03 L226.62,162.03 L227.12,163.02 L227.62,164.01 L228.12,164.99 L228.62,165.96 L229.12,166.92 L229.63,167.88 L230.13,168.83 L230.63,169.78 L231.13,170.71 L231.63,171.64 L232.13,172.56 L232.63,173.48 L233.13,174.39 L233.64,175.29 L234.14,176.18 L234.64,177.07 L235.14,177.95 L235.64,178.83 L236.14,179.69 L236.64,180.55 L237.15,181.40 L237.65,182.25 L238.15,183.09 L238.65,183.92 L239.15,184.74 L239.65,185.56 L240.15,186.37 L240.66,187.17 L241.16,187.97 L241.66,188.76 L242.16,189.54 L242.66,190.31 L243.16,191.08 L243.66,191.84 L244.16,192.59 L244.67,193.34 L245.17,194.08 L245.67,194.81 L246.17,195.54 L246.67,196.26 L247.17,196.97 L247.67,197.67 L248.18,198.37 L248.68,199.06 L249.18,199.74 L249.68,200.42 L250.18,201.09 L250.68,201.75 L251.18,202.41 L251.69,203.05 L252.19,203.70 L252.69,204.33 L253.19,204.96 L253.69,205.58 L254.19,206.19 L254.69,206.80 L255.19,207.39 L255.70,207.99 L256.20,208.57 L256.70,209.15 L257.20,209.72 L257.70,210.28 L258.20,210.84 L258.70,211.39 L259.21,211.93 L259.71,212.47 L260.21,213.00 L260.71,213.52 L261.21,214.03 L261.71,214.54 L262.21,215.04 L262.72,215.53 L263.22,216.02 L263.72,216.50 L264.22,216.97 L264.72,217.43 L265.22,217.89 L265.72,218.34 L266.22,218.79 L266.73,219.22 L267.23,219.65 L267.73,220.08 L268.23,220.49 L268.73,220.90 L269.23,221.30 L269.73,221.70 L270.24,222.09 L270.74,222.47 L271.24,222.84 L271.74,223.21 L272.24,223.57 L272.74,223.92 L273.24,224.26 L273.75,224.60 L274.25,224.93 L274.75,225.26 L275.25,225.58 L275.75,225.89 L276.25,226.19 L276.75,226.48 L277.25,226.77 L277.76,227.06 L278.26,227.33 L278.76,227.60 L279.26,227.86 L279.76,228.11 L280.26,228.36 L280.76,228.60 L281.27,228.83 L281.77,229.06 L282.27,229.28 L282.77,229.49 L283.27,229.69 L283.77,229.89 L284.27,230.08 L284.78,230.27 L285.28,230.44 L285.78,230.61 L286.28,230.77 L286.78,230.93 L287.28,231.08 L287.78,231.22 L288.28,231.35 L288.79,231.48 L289.29,231.60 L289.79,231.71 L290.29,231.82 L290.79,231.92 L291.29,232.01 L291.79,232.10 L292.30,232.18 L292.80,232.25 L293.30,232.31 L293.80,232.37 L294.30,232.42 L294.80,232.46 L295.30,232.50 L295.81,232.52 L296.31,232.55 L296.81,232.56 L297.31,232.57 L297.81,232.57 L298.31,232.56 L298.81,232.55 L299.31,232.53 L299.82,232.50 L300.32,232.47 L300.82,232.42 L301.32,232.38 L301.82,232.32 L302.32,232.26 L302.82,232.19 L303.33,232.11 L303.83,232.03 L304.33,231.94 L304.83,231.84 L305.33,231.73 L305.83,231.62 L306.33,231.50 L306.84,231.38 L307.34,231.24 L307.84,231.10 L308.34,230.95 L308.84,230.80 L309.34,230.64 L309.84,230.47 L310.34,230.30 L310.85,230.11 L311.35,229.92 L311.85,229.73 L312.35,229.52 L312.85,229.31 L313.35,229.10 L313.85,228.87 L314.36,228.64 L314.86,228.40 L315.36,228.15 L315.86,227.90 L316.36,227.64 L316.86,227.38 L317.36,227.10 L317.87,226.82 L318.37,226.53 L318.87,226.24 L319.37,225.94 L319.87,225.63 L320.37,225.31 L320.87,224.99 L321.37,224.66 L321.88,224.32 L322.38,223.98 L322.88,223.62 L323.38,223.27 L323.88,222.90 L324.38,222.53 L324.88,222.15 L325.39,221.76 L325.89,221.37 L326.39,220.97 L326.89,220.56 L327.39,220.15 L327.89,219.72 L328.39,219.29 L328.90,218.86 L329.40,218.42 L329.90,217.97 L330.40,217.51 L330.90,217.05 L331.40,216.57 L331.90,216.10 L332.40,215.61 L332.91,215.12 L333.41,214.62 L333.91,214.11 L334.41,213.60 L334.91,213.08 L335.41,212.55 L335.91,212.02 L336.42,211.48 L336.92,210.93 L337.42,210.37 L337.92,209.81 L338.42,209.24 L338.92,208.67 L339.42,208.08 L339.93,207.49 L340.43,206.89 L340.93,206.29 L341.43,205.68 L341.93,205.06 L342.43,204.43 L342.93,203.80 L343.43,203.16 L343.94,202.51 L344.44,201.86 L344.94,201.20 L345.44,200.53 L345.94,199.85 L346.44,199.17 L346.94,198.48 L347.45,197.79 L347.95,197.08 L348.45,196.37 L348.95,195.66 L349.45,194.93 L349.95,194.20 L350.45,193.46 L350.96,192.72 L351.46,191.96 L351.96,191.21 L352.46,190.44 L352.96,189.66 L353.46,188.88 L353.96,188.10 L354.46,187.30 L354.97,186.50 L355.47,185.69 L355.97,184.88 L356.47,184.05 L356.97,183.22 L357.47,182.39 L357.97,181.54 L358.48,180.69 L358.98,179.83 L359.48,178.97 L359.98,178.10 L360.48,177.22 L360.98,176.33 L361.48,175.44 L361.99,174.54 L362.49,173.63 L362.99,172.71 L363.49,171.79 L363.99,170.86 L364.49,169.93 L364.99,168.99 L365.49,168.04 L366.00,167.08 L366.50,166.12 L367.00,165.15 L367.50,164.17 L368.00,163.18 L368.50,162.19 L369.00,161.19 L369.51,160.19 L370.01,159.17 L370.51,158.15 L371.01,157.13 L371.51,156.09 L372.01,155.05 L372.51,154.00 L373.02,152.95 L373.52,151.89 L374.02,150.82 L374.52,149.74 L375.02,148.66 L375.52,147.57 L376.02,146.47 L376.53,145.37 L377.03,144.26 L377.53,143.14 L378.03,142.01 L378.53,140.88 L379.03,139.74 L379.53,138.59 L380.03,137.44 L380.54,136.28 L381.04,135.11 L381.54,133.94 L382.04,132.75 L382.54,131.57 L383.04,130.37 L383.54,129.17 L384.05,127.96 L384.55,126.74 L385.05,125.52 L385.55,124.28 L386.05,123.05 L386.55,121.80 L387.05,120.55 L387.56,119.29 L388.06,118.02 L388.56,116.75 L389.06,115.47 L389.56,114.18 L390.06,112.89 L390.56,111.59 L391.06,110.28 L391.57,108.96 L392.07,107.64 L392.57,106.31 L393.07,104.97 L393.57,103.63 L394.07,102.28 L394.57,100.92 L395.08,99.56 L395.58,98.18 L396.08,96.81 L396.58,95.42 L397.08,94.03 L397.58,92.63 L398.08,91.22 L398.59,89.81 L399.09,88.39 L399.59,86.96 L400.09,85.52 L400.59,84.08 L401.09,82.63 L401.59,81.17 L402.09,79.71 L402.60,78.24 L403.10,76.76 L403.60,75.28 L404.10,73.79 L404.60,72.29 L405.10,70.78 L405.60,69.27 L406.11,67.75 L406.61,66.22 L407.11,64.69 L407.61,63.15 L408.11,61.60 L408.61,60.05 L409.11,58.49 L409.62,56.92 L410.12,55.34 L410.62,53.76 L411.12,52.17 L411.62,50.57 L412.12,48.97 L412.62,47.36 L413.12,45.74 L413.63,44.11 L414.13,42.48 L414.63,40.84 L415.13,39.19 L415.63,37.54 L416.13,35.88 L416.63,34.21 L417.14,32.54 L417.64,30.86 L418.14,29.17 L418.64,27.47 L419.14,25.77 L419.64,24.06 L420.14,22.34 L420.65,20.62 L421.15,18.89 L421.65,17.15 L422.15,15.41 L422.65,13.65 L423.15,11.90 L423.65,10.13 L424.15,8.36 L424.66,6.58 L425.16,4.79 L425.66,3.00 L426.16,1.19 L426.66,-0.61 L427.16,-2.43 L427.66,-4.25 L428.17,-6.08 L428.67,-7.92 L429.17,-9.76 L429.67,-11.61 L430.17,-13.47 L430.67,-15.33 L431.17,-17.20 L431.68,-19.08 L432.18,-20.97 L432.68,-22.86 L433.18,-24.76 L433.68,-26.67 L434.18,-28.58 L434.68,-30.50 L435.18,-32.43 L435.69,-34.36 L436.19,-36.31 L436.69,-38.26 L437.19,-40.21 L437.69,-42.17 L438.19,-44.14 L438.69,-46.12 L439.20,-48.11 L439.70,-50.10 L440.20,-52.10 L440.70,-54.10 L441.20,-56.11 L441.70,-58.13 L442.20,-60.16 L442.71,-62.19 L443.21,-64.23 L443.71,-66.28 L444.21,-68.33 L444.71,-70.40 L445.21,-72.46 L445.71,-74.54 L446.21,-76.62 L446.72,-78.71 L447.22,-80.81 L447.72,-82.91 L448.22,-85.02 L448.72,-87.14 L449.22,-89.27 L449.72,-91.40 L450.23,-93.54 L450.73,-95.68 L451.23,-97.84 L451.73,-100.00 L452.23,-102.16 L452.73,-104.34 L453.23,-106.52 L453.74,-108.71 L454.24,-110.90 L454.74,-113.10 L455.24,-115.31 L455.74,-117.53 L456.24,-119.75 L456.74,-121.98 L457.24,-124.22 L457.75,-126.47 L458.25,-128.72 L458.75,-130.98 L459.25,-133.24 L459.75,-135.51 L460.25,-137.79 L460.75,-140.08 L461.26,-142.38 L461.76,-144.68 L462.26,-146.98 L462.76,-149.30 L463.26,-151.62 L463.76,-153.95 L464.26,-156.29 L464.77,-158.63 L465.27,-160.98 L465.77,-163.34 L466.27,-165.70 L466.77,-168.07 L467.27,-170.45 L467.77,-172.83 L468.27,-175.23 L468.78,-177.63 L469.28,-180.03 L469.78,-182.45 L470.28,-184.87 L470.78,-187.29 L471.28,-189.73 L471.78,-192.17 L472.29,-194.62 L472.79,-197.08 L473.29,-199.54 L473.79,-202.01 L474.29,-204.48 L474.79,-206.97 L475.29,-209.46 L475.80,-211.96 L476.30,-214.46 L476.80,-216.97 L477.30,-219.49 L477.80,-222.02 L478.30,-224.55 L478.80,-227.09 L479.30,-229.64 L479.81,-232.19 L480.31,-234.75 L480.81,-237.32 L481.31,-239.90 L481.81,-242.48 L482.31,-245.07 L482.81,-247.67 L483.32,-250.27 L483.82,-252.88 L484.32,-255.50 L484.82,-256.10 L485.32,-256.10 L485.82,-256.10 L486.32,-256.10 L486.83,-256.10 L487.33,-256.10 L487.83,-256.10 L488.33,-256.10 L488.83,-256.10 L489.33,-256.10 L489.83,-256.10 L490.33,-256.10 L490.84,-256.10 L491.34,-256.10 L491.84,-256.10 L492.34,-256.10 L492.84,-256.10 L493.34,-256.10 L493.84,-256.10 L494.35,-256.10 L494.85,-256.10 L495.35,-256.10 L495.85,-256.10 L496.35,-256.10 L496.85,-256.10 L497.35,-256.10 L497.86,-256.10 L498.36,-256.10 L498.86,-256.10 L499.36,-256.10 L499.86,-256.10 L500.36,-256.10 L500.86,-256.10 L501.36,-256.10 L501.87,-256.10 L502.37,-256.10 L502.87,-256.10 L503.37,-256.10 L503.87,-256.10 L504.37,-256.10 L504.87,-256.10 L505.38,-256.10 L505.88,-256.10 L506.38,-256.10 L506.88,-256.10 L507.38,-256.10 L507.88,-256.10 L508.38,-256.10 L508.89,-256.10 L509.39,-256.10 L509.89,-256.10 L510.39,-256.10 L510.89,-256.10 L511.39,-256.10 L511.89,-256.10 L512.39,-256.10 L512.90,-256.10 L513.40,-256.10 L513.90,-256.10 L514.40,-256.10 L514.90,-256.10 L515.40,-256.10 L515.90,-256.10 L516.41,-256.10 L516.91,-256.10 L517.41,-256.10 L517.91,-256.10 L518.41,-256.10 L518.91,-256.10 L519.41,-256.10 L519.92,-256.10 L520.42,-256.10 L520.92,-256.10 L521.42,-256.10 L521.92,-256.10 L522.42,-256.10 L522.92,-256.10 L523.42,-256.10 L523.93,-256.10 L524.43,-256.10 L524.93,-256.10 L525.43,-256.10 L525.93,-256.10 L526.43,-256.10 L526.93,-256.10 L527.44,-256.10 L527.94,-256.10 L528.44,-256.10 L528.94,-256.10 L529.44,-256.10 L529.94,-256.10 L530.44,-256.10 L530.95,-256.10 L531.45,-256.10 L531.95,-256.10 L532.45,-256.10 L532.95,-256.10 L533.45,-256.10 L533.95,-256.10 L534.45,-256.10 L534.96,-256.10 L535.46,-256.10 L535.96,-256.10 L536.46,-256.10 L536.96,-256.10 L537.46,-256.10 L537.96,-256.10 L538.47,-256.10 L538.97,-256.10 L539.47,-256.10 L539.97,-256.10 L540.47,-256.10 L540.97,-256.10 L541.47,-256.10 L541.98,-256.10 L542.48,-256.10 L542.98,-256.10 L543.48,-256.10 L543.98,-256.10 L544.48,-256.10 L544.98,-256.10 L545.48,-256.10 L545.99,-256.10 L546.49,-256.10 L546.99,-256.10 L547.49,-256.10 L547.99,-256.10 L548.49,-256.10 L548.99,-256.10 L549.50,-256.10 L550.00,-256.10 L550.50,-256.10 L551.00,-256.10" style="stroke-width: 2; stroke: rgba(74, 144, 226, 0.8);"/><path d=" M374.75, 256.10 L374.75, 255.60 L374.75, 255.10 L374.75, 254.60 L374.75, 254.10 L374.75, 253.60 L374.75, 253.09 L374.75, 252.59 L374.75, 252.09 L374.75, 251.59 L374.75, 251.09 L374.75, 250.59 L374.75, 250.09 L374.75, 249.59 L374.75, 249.09 L374.75, 248.59 L374.75, 248.08 L374.75, 247.58 L374.75, 247.08 L374.75, 246.58 L374.75, 246.08 L374.75, 245.58 L374.75, 245.08 L374.75, 244.58 L374.75, 244.08 L374.75, 243.58 L374.75, 243.07 L374.75, 242.57 L374.75, 242.07 L374.75, 241.57 L374.75, 241.07 L374.75, 240.57 L374.75, 240.07 L374.75, 239.57 L374.75, 239.07 L374.75, 238.57 L374.75, 238.06 L374.75, 237.56 L374.75, 237.06 L374.75, 236.56 L374.75, 236.06 L374.75, 235.56 L374.75, 235.06 L374.75, 234.56 L374.75, 234.06 L374.75, 233.56 L374.75, 233.06 L374.75, 232.55 L374.75, 232.05 L374.75, 231.55 L374.75, 231.05 L374.75, 230.55 L374.75, 230.05 L374.75, 229.55 L374.75, 229.05 L374.75, 228.55 L374.75, 228.05 L374.75, 227.54 L374.75, 227.04 L374.75, 226.54 L374.75, 226.04 L374.75, 225.54 L374.75, 225.04 L374.75, 224.54 L374.75, 224.04 L374.75, 223.54 L374.75, 223.04 L374.75, 222.53 L374.75, 222.03 L374.75, 221.53 L374.75, 221.03 L374.75, 220.53 L374.75, 220.03 L374.75, 219.53 L374.75, 219.03 L374.75, 218.53 L374.75, 218.03 L374.75, 217.52 L374.75, 217.02 L374.75, 216.52 L374.75, 216.02 L374.75, 215.52 L374.75, 215.02 L374.75, 214.52 L374.75, 214.02 L374.75, 213.52 L374.75, 213.02 L374.75, 212.51 L374.75, 212.01 L374.75, 211.51 L374.75, 211.01 L374.75, 210.51 L374.75, 210.01 L374.75, 209.51 L374.75, 209.01 L374.75, 208.51 L374.75, 208.01 L374.75, 207.51 L374.75, 207.00 L374.75, 206.50 L374.75, 206.00 L374.75, 205.50 L374.75, 205.00 L374.75, 204.50 L374.75, 204.00 L374.75, 203.50 L374.75, 203.00 L374.75, 202.50 L374.75, 201.99 L374.75, 201.49 L374.75, 200.99 L374.75, 200.49 L374.75, 199.99 L374.75, 199.49 L374.75, 198.99 L374.75, 198.49 L374.75, 197.99 L374.75, 197.49 L374.75, 196.98 L374.75, 196.48 L374.75, 195.98 L374.75, 195.48 L374.75, 194.98 L374.75, 194.48 L374.75, 193.98 L374.75, 193.48 L374.75, 192.98 L374.75, 192.48 L374.75, 191.97 L374.75, 191.47 L374.75, 190.97 L374.75, 190.47 L374.75, 189.97 L374.75, 189.47 L374.75, 188.97 L374.75, 188.47 L374.75, 187.97 L374.75, 187.47 L374.75, 186.97 L374.75, 186.46 L374.75, 185.96 L374.75, 185.46 L374.75, 184.96 L374.75, 184.46 L374.75, 183.96 L374.75, 183.46 L374.75, 182.96 L374.75, 182.46 L374.75, 181.96 L374.75, 181.45 L374.75, 180.95 L374.75, 180.45 L374.75, 179.95 L374.75, 179.45 L374.75, 178.95 L374.75, 178.45 L374.75, 177.95 L374.75, 177.45 L374.75, 176.95 L374.75, 176.44 L374.75, 175.94 L374.75, 175.44 L374.75, 174.94 L374.75, 174.44 L374.75, 173.94 L374.75, 173.44 L374.75, 172.94 L374.75, 172.44 L374.75, 171.94 L374.75, 171.43 L374.75, 170.93 L374.75, 170.43 L374.75, 169.93 L374.75, 169.43 L374.75, 168.93 L374.75, 168.43 L374.75, 167.93 L374.75, 167.43 L374.75, 166.93 L374.75, 166.42 L374.75, 165.92 L374.75, 165.42 L374.75, 164.92 L374.75, 164.42 L374.75, 163.92 L374.75, 163.42 L374.75, 162.92 L374.75, 162.42 L374.75, 161.92 L374.75, 161.42 L374.75, 160.91 L374.75, 160.41 L374.75, 159.91 L374.75, 159.41 L374.75, 158.91 L374.75, 158.41 L374.75, 157.91 L374.75, 157.41 L374.75, 156.91 L374.75, 156.41 L374.75, 155.90 L374.75, 155.40 L374.75, 154.90 L374.75, 154.40 L374.75, 153.90 L374.75, 153.40 L374.75, 152.90 L374.75, 152.40 L374.75, 151.90 L374.75, 151.40 L374.75, 150.89 L374.75, 150.39 L374.75, 149.89 L374.75, 149.39 L374.75, 148.89 L374.75, 148.39 L374.75, 147.89 L374.75, 147.39 L374.75, 146.89 L374.75, 146.39 L374.75, 145.88 L374.75, 145.38 L374.75, 144.88 L374.75, 144.38 L374.75, 143.88 L374.75, 143.38 L374.75, 142.88 L374.75, 142.38 L374.75, 141.88 L374.75, 141.38 L374.75, 140.88 L374.75, 140.37 L374.75, 139.87 L374.75, 139.37 L374.75, 138.87 L374.75, 138.37 L374.75, 137.87 L374.75, 137.37 L374.75, 136.87 L374.75, 136.37 L374.75, 135.87 L374.75, 135.36 L374.75, 134.86 L374.75, 134.36 L374.75, 133.86 L374.75, 133.36 L374.75, 132.86 L374.75, 132.36 L374.75, 131.86 L374.75, 131.36 L374.75, 130.86 L374.75, 130.35 L374.75, 129.85 L374.75, 129.35 L374.75, 128.85 L374.75, 128.35 L374.75, 127.85 L374.75, 127.35 L374.75, 126.85 L374.75, 126.35 L374.75, 125.85 L374.75, 125.34 L374.75, 124.84 L374.75, 124.34 L374.75, 123.84 L374.75, 123.34 L374.75, 122.84 L374.75, 122.34 L374.75, 121.84 L374.75, 121.34 L374.75, 120.84 L374.75, 120.33 L374.75, 119.83 L374.75, 119.33 L374.75, 118.83 L374.75, 118.33 L374.75, 117.83 L374.75, 117.33 L374.75, 116.83 L374.75, 116.33 L374.75, 115.83 L374.75, 115.33 L374.75, 114.82 L374.75, 114.32 L374.75, 113.82 L374.75, 113.32 L374.75, 112.82 L374.75, 112.32 L374.75, 111.82 L374.75, 111.32 L374.75, 110.82 L374.75, 110.32 L374.75, 109.81 L374.75, 109.31 L374.75, 108.81 L374.75, 108.31 L374.75, 107.81 L374.75, 107.31 L374.75, 106.81 L374.75, 106.31 L374.75, 105.81 L374.75, 105.31 L374.75, 104.80 L374.75, 104.30 L374.75, 103.80 L374.75, 103.30 L374.75, 102.80 L374.75, 102.30 L374.75, 101.80 L374.75, 101.30 L374.75, 100.80 L374.75, 100.30 L374.75, 99.79 L374.75, 99.29 L374.75, 98.79 L374.75, 98.29 L374.75, 97.79 L374.75, 97.29 L374.75, 96.79 L374.75, 96.29 L374.75, 95.79 L374.75, 95.29 L374.75, 94.79 L374.75, 94.28 L374.75, 93.78 L374.75, 93.28 L374.75, 92.78 L374.75, 92.28 L374.75, 91.78 L374.75, 91.28 L374.75, 90.78 L374.75, 90.28 L374.75, 89.78 L374.75, 89.27 L374.75, 88.77 L374.75, 88.27 L374.75, 87.77 L374.75, 87.27 L374.75, 86.77 L374.75, 86.27 L374.75, 85.77 L374.75, 85.27 L374.75, 84.77 L374.75, 84.26 L374.75, 83.76 L374.75, 83.26 L374.75, 82.76 L374.75, 82.26 L374.75, 81.76 L374.75, 81.26 L374.75, 80.76 L374.75, 80.26 L374.75, 79.76 L374.75, 79.25 L374.75, 78.75 L374.75, 78.25 L374.75, 77.75 L374.75, 77.25 L374.75, 76.75 L374.75, 76.25 L374.75, 75.75 L374.75, 75.25 L374.75, 74.75 L374.75, 74.24 L374.75, 73.74 L374.75, 73.24 L374.75, 72.74 L374.75, 72.24 L374.75, 71.74 L374.75, 71.24 L374.75, 70.74 L374.75, 70.24 L374.75, 69.74 L374.75, 69.24 L374.75, 68.73 L374.75, 68.23 L374.75, 67.73 L374.75, 67.23 L374.75, 66.73 L374.75, 66.23 L374.75, 65.73 L374.75, 65.23 L374.75, 64.73 L374.75, 64.23 L374.75, 63.72 L374.75, 63.22 L374.75, 62.72 L374.75, 62.22 L374.75, 61.72 L374.75, 61.22 L374.75, 60.72 L374.75, 60.22 L374.75, 59.72 L374.75, 59.22 L374.75, 58.71 L374.75, 58.21 L374.75, 57.71 L374.75, 57.21 L374.75, 56.71 L374.75, 56.21 L374.75, 55.71 L374.75, 55.21 L374.75, 54.71 L374.75, 54.21 L374.75, 53.70 L374.75, 53.20 L374.75, 52.70 L374.75, 52.20 L374.75, 51.70 L374.75, 51.20 L374.75, 50.70 L374.75, 50.20 L374.75, 49.70 L374.75, 49.20 L374.75, 48.70 L374.75, 48.19 L374.75, 47.69 L374.75, 47.19 L374.75, 46.69 L374.75, 46.19 L374.75, 45.69 L374.75, 45.19 L374.75, 44.69 L374.75, 44.19 L374.75, 43.69 L374.75, 43.18 L374.75, 42.68 L374.75, 42.18 L374.75, 41.68 L374.75, 41.18 L374.75, 40.68 L374.75, 40.18 L374.75, 39.68 L374.75, 39.18 L374.75, 38.68 L374.75, 38.17 L374.75, 37.67 L374.75, 37.17 L374.75, 36.67 L374.75, 36.17 L374.75, 35.67 L374.75, 35.17 L374.75, 34.67 L374.75, 34.17 L374.75, 33.67 L374.75, 33.16 L374.75, 32.66 L374.75, 32.16 L374.75, 31.66 L374.75, 31.16 L374.75, 30.66 L374.75, 30.16 L374.75, 29.66 L374.75, 29.16 L374.75, 28.66 L374.75, 28.15 L374.75, 27.65 L374.75, 27.15 L374.75, 26.65 L374.75, 26.15 L374.75, 25.65 L374.75, 25.15 L374.75, 24.65 L374.75, 24.15 L374.75, 23.65 L374.75, 23.15 L374.75, 22.64 L374.75, 22.14 L374.75, 21.64 L374.75, 21.14 L374.75, 20.64 L374.75, 20.14 L374.75, 19.64 L374.75, 19.14 L374.75, 18.64 L374.75, 18.14 L374.75, 17.63 L374.75, 17.13 L374.75, 16.63 L374.75, 16.13 L374.75, 15.63 L374.75, 15.13 L374.75, 14.63 L374.75, 14.13 L374.75, 13.63 L374.75, 13.13 L374.75, 12.62 L374.75, 12.12 L374.75, 11.62 L374.75, 11.12 L374.75, 10.62 L374.75, 10.12 L374.75, 9.62 L374.75, 9.12 L374.75, 8.62 L374.75, 8.12 L374.75, 7.61 L374.75, 7.11 L374.75, 6.61 L374.75, 6.11 L374.75, 5.61 L374.75, 5.11 L374.75, 4.61 L374.75, 4.11 L374.75, 3.61 L374.75, 3.11 L374.75, 2.61 L374.75, 2.10 L374.75, 1.60 L374.75, 1.10 L374.75, 0.60 L374.75, 0.10 L374.75, 0.00" style="stroke-width: 1; stroke: rgb(126, 211, 33); stroke-dasharray: 6, 6;"/><path d=" M0.00,512.20 L0.50,512.20 L1.00,512.20 L1.50,512.20 L2.01,512.20 L2.51,512.20 L3.01,512.20 L3.51,512.20 L4.01,512.20 L4.51,512.20 L5.01,512.20 L5.52,512.20 L6.02,512.20 L6.52,512.20 L7.02,512.20 L7.52,512.20 L8.02,512.20 L8.52,512.20 L9.02,512.20 L9.53,512.20 L10.03,512.20 L10.53,512.20 L11.03,512.20 L11.53,512.20 L12.03,512.20 L12.53,512.20 L13.04,512.20 L13.54,512.20 L14.04,512.20 L14.54,512.20 L15.04,512.20 L15.54,512.20 L16.04,512.20 L16.55,512.20 L17.05,512.20 L17.55,512.20 L18.05,512.20 L18.55,512.20 L19.05,512.20 L19.55,512.20 L20.05,512.20 L20.56,512.20 L21.06,512.20 L21.56,512.20 L22.06,512.20 L22.56,512.20 L23.06,512.20 L23.56,512.20 L24.07,512.20 L24.57,512.20 L25.07,512.20 L25.57,512.20 L26.07,512.20 L26.57,512.20 L27.07,512.20 L27.58,512.20 L28.08,512.20 L28.58,512.20 L29.08,512.20 L29.58,512.20 L30.08,512.20 L30.58,512.20 L31.08,512.20 L31.59,512.20 L32.09,512.20 L32.59,512.20 L33.09,512.20 L33.59,512.20 L34.09,512.20 L34.59,512.20 L35.10,512.20 L35.60,512.20 L36.10,512.20 L36.60,512.20 L37.10,512.20 L37.60,512.20 L38.10,512.20 L38.61,512.20 L39.11,512.20 L39.61,512.20 L40.11,512.20 L40.61,512.20 L41.11,512.20 L41.61,512.20 L42.11,512.20 L42.62,512.20 L43.12,512.20 L43.62,512.20 L44.12,512.20 L44.62,512.20 L45.12,512.20 L45.62,512.20 L46.13,512.20 L46.63,512.20 L47.13,512.20 L47.63,512.20 L48.13,512.20 L48.63,512.20 L49.13,512.20 L49.64,512.20 L50.14,512.20 L50.64,512.20 L51.14,512.20 L51.64,512.20 L52.14,512.20 L52.64,512.20 L53.14,512.20 L53.65,512.20 L54.15,512.20 L54.65,512.20 L55.15,512.20 L55.65,512.20 L56.15,512.20 L56.65,512.20 L57.16,512.20 L57.66,512.20 L58.16,512.20 L58.66,512.20 L59.16,512.20 L59.66,512.20 L60.16,512.20 L60.67,512.20 L61.17,512.20 L61.67,512.20 L62.17,512.20 L62.67,512.20 L63.17,512.20 L63.67,512.20 L64.17,512.20 L64.68,512.20 L65.18,512.20 L65.68,512.20 L66.18,512.20 L66.68,512.20 L67.18,512.20 L67.68,512.20 L68.19,512.20 L68.69,512.20 L69.19,512.20 L69.69,512.20 L70.19,512.20 L70.69,512.20 L71.19,512.20 L71.70,512.20 L72.20,512.20 L72.70,512.20 L73.20,512.20 L73.70,512.20 L74.20,512.20 L74.70,512.20 L75.20,512.20 L75.71,512.20 L76.21,512.20 L76.71,512.20 L77.21,512.20 L77.71,512.20 L78.21,512.20 L78.71,512.20 L79.22,512.20 L79.72,512.20 L80.22,512.20 L80.72,512.20 L81.22,512.20 L81.72,512.20 L82.22,512.20 L82.73,512.20 L83.23,512.20 L83.73,512.20 L84.23,512.20 L84.73,512.20 L85.23,512.20 L85.73,512.20 L86.23,512.20 L86.74,512.20 L87.24,512.20 L87.74,512.20 L88.24,512.20 L88.74,512.20 L89.24,512.20 L89.74,512.20 L90.25,512.20 L90.75,512.20 L91.25,512.20 L91.75,512.20 L92.25,512.20 L92.75,512.20 L93.25,512.20 L93.76,512.20 L94.26,512.20 L94.76,512.20 L95.26,512.20 L95.76,512.20 L96.26,512.20 L96.76,512.20 L97.26,512.20 L97.77,512.20 L98.27,512.20 L98.77,512.20 L99.27,512.20 L99.77,512.20 L100.27,512.20 L100.77,512.20 L101.28,512.20 L101.78,512.20 L102.28,512.20 L102.78,512.20 L103.28,512.20 L103.78,512.20 L104.28,512.20 L104.79,512.20 L105.29,512.20 L105.79,512.20 L106.29,512.20 L106.79,512.20 L107.29,512.20 L107.79,512.20 L108.29,512.20 L108.80,512.20 L109.30,512.20 L109.80,512.20 L110.30,512.20 L110.80,512.20 L111.30,512.20 L111.80,512.20 L112.31,512.20 L112.81,512.20 L113.31,512.20 L113.81,512.20 L114.31,512.20 L114.81,512.20 L115.31,512.20 L115.82,512.20 L116.32,512.20 L116.82,512.20 L117.32,512.20 L117.82,512.20 L118.32,512.20 L118.82,512.20 L119.32,512.20 L119.83,512.20 L120.33,512.20 L120.83,512.20 L121.33,512.20 L121.83,512.20 L122.33,512.20 L122.83,512.20 L123.34,512.20 L123.84,512.20 L124.34,512.20 L124.84,512.20 L125.34,512.20 L125.84,512.20 L126.34,512.20 L126.85,512.20 L127.35,512.20 L127.85,512.20 L128.35,512.20 L128.85,512.20 L129.35,512.20 L129.85,512.20 L130.35,512.20 L130.86,512.20 L131.36,512.20 L131.86,512.20 L132.36,512.20 L132.86,512.20 L133.36,512.20 L133.86,512.20 L134.37,512.20 L134.87,512.20 L135.37,512.20 L135.87,512.20 L136.37,512.20 L136.87,512.20 L137.37,512.20 L137.88,512.20 L138.38,512.20 L138.88,512.20 L139.38,512.20 L139.88,512.20 L140.38,512.20 L140.88,512.20 L141.38,512.20 L141.89,512.20 L142.39,512.20 L142.89,512.20 L143.39,512.20 L143.89,512.20 L144.39,512.20 L144.89,512.20 L145.40,512.20 L145.90,512.20 L146.40,512.20 L146.90,512.20 L147.40,512.20 L147.90,512.20 L148.40,512.20 L148.91,512.20 L149.41,512.20 L149.91,512.20 L150.41,512.20 L150.91,512.20 L151.41,512.20 L151.91,512.20 L152.41,512.20 L152.92,512.20 L153.42,512.20 L153.92,512.20 L154.42,512.20 L154.92,512.20 L155.42,512.20 L155.92,512.20 L156.43,512.20 L156.93,512.20 L157.43,512.20 L157.93,512.20 L158.43,512.20 L158.93,512.20 L159.43,512.20 L159.94,512.20 L160.44,512.20 L160.94,512.20 L161.44,512.20 L161.94,512.20 L162.44,512.20 L162.94,512.20 L163.44,512.20 L163.95,512.20 L164.45,512.20 L164.95,512.20 L165.45,512.20 L165.95,512.20 L166.45,512.20 L166.95,512.20 L167.46,512.20 L167.96,512.20 L168.46,512.20 L168.96,512.20 L169.46,512.20 L169.96,512.20 L170.46,512.20 L170.97,512.20 L171.47,512.20 L171.97,512.20 L172.47,512.20 L172.97,512.20 L173.47,512.20 L173.97,512.20 L174.47,512.20 L174.98,512.20 L175.48,512.20 L175.98,512.20 L176.48,512.20 L176.98,512.20 L177.48,512.20 L177.98,512.20 L178.49,512.20 L178.99,512.20 L179.49,512.20 L179.99,512.20 L180.49,512.20 L180.99,512.20 L181.49,512.20 L182.00,512.20 L182.50,512.20 L183.00,512.20 L183.50,512.20 L184.00,512.20 L184.50,512.20 L185.00,512.20 L185.51,512.20 L186.01,512.20 L186.51,512.20 L187.01,512.20 L187.51,512.20 L188.01,512.20 L188.51,512.20 L189.01,512.20 L189.52,512.20 L190.02,512.20 L190.52,512.20 L191.02,512.20 L191.52,512.20 L192.02,512.20 L192.52,512.20 L193.03,512.20 L193.53,512.20 L194.03,512.20 L194.53,512.20 L195.03,512.20 L195.53,512.20 L196.03,512.20 L196.54,512.20 L197.04,512.20 L197.54,512.20 L198.04,512.20 L198.54,512.20 L199.04,512.20 L199.54,512.20 L200.04,512.20 L200.55,512.20 L201.05,512.20 L201.55,512.20 L202.05,512.20 L202.55,512.20 L203.05,512.20 L203.55,512.20 L204.06,512.20 L204.56,512.20 L205.06,512.20 L205.56,512.20 L206.06,512.20 L206.56,512.20 L207.06,511.45 L207.57,510.36 L208.07,509.28 L208.57,508.20 L209.07,507.12 L209.57,506.03 L210.07,504.95 L210.57,503.87 L211.07,502.78 L211.58,501.70 L212.08,500.62 L212.58,499.54 L213.08,498.45 L213.58,497.37 L214.08,496.29 L214.58,495.20 L215.09,494.12 L215.59,493.04 L216.09,491.95 L216.59,490.87 L217.09,489.79 L217.59,488.71 L218.09,487.62 L218.60,486.54 L219.10,485.46 L219.60,484.37 L220.10,483.29 L220.60,482.21 L221.10,481.12 L221.60,480.04 L222.10,478.96 L222.61,477.88 L223.11,476.79 L223.61,475.71 L224.11,474.63 L224.61,473.54 L225.11,472.46 L225.61,471.38 L226.12,470.30 L226.62,469.21 L227.12,468.13 L227.62,467.05 L228.12,465.96 L228.62,464.88 L229.12,463.80 L229.63,462.71 L230.13,461.63 L230.63,460.55 L231.13,459.47 L231.63,458.38 L232.13,457.30 L232.63,456.22 L233.13,455.13 L233.64,454.05 L234.14,452.97 L234.64,451.89 L235.14,450.80 L235.64,449.72 L236.14,448.64 L236.64,447.55 L237.15,446.47 L237.65,445.39 L238.15,444.30 L238.65,443.22 L239.15,442.14 L239.65,441.06 L240.15,439.97 L240.66,438.89 L241.16,437.81 L241.66,436.72 L242.16,435.64 L242.66,434.56 L243.16,433.48 L243.66,432.39 L244.16,431.31 L244.67,430.23 L245.17,429.14 L245.67,428.06 L246.17,426.98 L246.67,425.89 L247.17,424.81 L247.67,423.73 L248.18,422.65 L248.68,421.56 L249.18,420.48 L249.68,419.40 L250.18,418.31 L250.68,417.23 L251.18,416.15 L251.69,415.07 L252.19,413.98 L252.69,412.90 L253.19,411.82 L253.69,410.73 L254.19,409.65 L254.69,408.57 L255.19,407.48 L255.70,406.40 L256.20,405.32 L256.70,404.24 L257.20,403.15 L257.70,402.07 L258.20,400.99 L258.70,399.90 L259.21,398.82 L259.71,397.74 L260.21,396.65 L260.71,395.57 L261.21,394.49 L261.71,393.41 L262.21,392.32 L262.72,391.24 L263.22,390.16 L263.72,389.07 L264.22,387.99 L264.72,386.91 L265.22,385.83 L265.72,384.74 L266.22,383.66 L266.73,382.58 L267.23,381.49 L267.73,380.41 L268.23,379.33 L268.73,378.24 L269.23,377.16 L269.73,376.08 L270.24,375.00 L270.74,373.91 L271.24,372.83 L271.74,371.75 L272.24,370.66 L272.74,369.58 L273.24,368.50 L273.75,367.42 L274.25,366.33 L274.75,365.25 L275.25,364.17 L275.75,363.08 L276.25,362.00 L276.75,360.92 L277.25,359.83 L277.76,358.75 L278.26,357.67 L278.76,356.59 L279.26,355.50 L279.76,354.42 L280.26,353.34 L280.76,352.25 L281.27,351.17 L281.77,350.09 L282.27,349.01 L282.77,347.92 L283.27,346.84 L283.77,345.76 L284.27,344.67 L284.78,343.59 L285.28,342.51 L285.78,341.42 L286.28,340.34 L286.78,339.26 L287.28,338.18 L287.78,337.09 L288.28,336.01 L288.79,334.93 L289.29,333.84 L289.79,332.76 L290.29,331.68 L290.79,330.60 L291.29,329.51 L291.79,328.43 L292.30,327.35 L292.80,326.26 L293.30,325.18 L293.80,324.10 L294.30,323.01 L294.80,321.93 L295.30,320.85 L295.81,319.77 L296.31,318.68 L296.81,317.60 L297.31,316.52 L297.81,315.43 L298.31,314.35 L298.81,313.27 L299.31,312.18 L299.82,311.10 L300.32,310.02 L300.82,308.94 L301.32,307.85 L301.82,306.77 L302.32,305.69 L302.82,304.60 L303.33,303.52 L303.83,302.44 L304.33,301.36 L304.83,300.27 L305.33,299.19 L305.83,298.11 L306.33,297.02 L306.84,295.94 L307.34,294.86 L307.84,293.77 L308.34,292.69 L308.84,291.61 L309.34,290.53 L309.84,289.44 L310.34,288.36 L310.85,287.28 L311.35,286.19 L311.85,285.11 L312.35,284.03 L312.85,282.95 L313.35,281.86 L313.85,280.78 L314.36,279.70 L314.86,278.61 L315.36,277.53 L315.86,276.45 L316.36,275.36 L316.86,274.28 L317.36,273.20 L317.87,272.12 L318.37,271.03 L318.87,269.95 L319.37,268.87 L319.87,267.78 L320.37,266.70 L320.87,265.62 L321.37,264.54 L321.88,263.45 L322.38,262.37 L322.88,261.29 L323.38,260.20 L323.88,259.12 L324.38,258.04 L324.88,256.95 L325.39,255.87 L325.89,254.79 L326.39,253.71 L326.89,252.62 L327.39,251.54 L327.89,250.46 L328.39,249.37 L328.90,248.29 L329.40,247.21 L329.90,246.13 L330.40,245.04 L330.90,243.96 L331.40,242.88 L331.90,241.79 L332.40,240.71 L332.91,239.63 L333.41,238.54 L333.91,237.46 L334.41,236.38 L334.91,235.30 L335.41,234.21 L335.91,233.13 L336.42,232.05 L336.92,230.96 L337.42,229.88 L337.92,228.80 L338.42,227.72 L338.92,226.63 L339.42,225.55 L339.93,224.47 L340.43,223.38 L340.93,222.30 L341.43,221.22 L341.93,220.13 L342.43,219.05 L342.93,217.97 L343.43,216.89 L343.94,215.80 L344.44,214.72 L344.94,213.64 L345.44,212.55 L345.94,211.47 L346.44,210.39 L346.94,209.30 L347.45,208.22 L347.95,207.14 L348.45,206.06 L348.95,204.97 L349.45,203.89 L349.95,202.81 L350.45,201.72 L350.96,200.64 L351.46,199.56 L351.96,198.48 L352.46,197.39 L352.96,196.31 L353.46,195.23 L353.96,194.14 L354.46,193.06 L354.97,191.98 L355.47,190.89 L355.97,189.81 L356.47,188.73 L356.97,187.65 L357.47,186.56 L357.97,185.48 L358.48,184.40 L358.98,183.31 L359.48,182.23 L359.98,181.15 L360.48,180.07 L360.98,178.98 L361.48,177.90 L361.99,176.82 L362.49,175.73 L362.99,174.65 L363.49,173.57 L363.99,172.48 L364.49,171.40 L364.99,170.32 L365.49,169.24 L366.00,168.15 L366.50,167.07 L367.00,165.99 L367.50,164.90 L368.00,163.82 L368.50,162.74 L369.00,161.66 L369.51,160.57 L370.01,159.49 L370.51,158.41 L371.01,157.32 L371.51,156.24 L372.01,155.16 L372.51,154.07 L373.02,152.99 L373.52,151.91 L374.02,150.83 L374.52,149.74 L375.02,148.66 L375.52,147.58 L376.02,146.49 L376.53,145.41 L377.03,144.33 L377.53,143.25 L378.03,142.16 L378.53,141.08 L379.03,140.00 L379.53,138.91 L380.03,137.83 L380.54,136.75 L381.04,135.66 L381.54,134.58 L382.04,133.50 L382.54,132.42 L383.04,131.33 L383.54,130.25 L384.05,129.17 L384.55,128.08 L385.05,127.00 L385.55,125.92 L386.05,124.83 L386.55,123.75 L387.05,122.67 L387.56,121.59 L388.06,120.50 L388.56,119.42 L389.06,118.34 L389.56,117.25 L390.06,116.17 L390.56,115.09 L391.06,114.01 L391.57,112.92 L392.07,111.84 L392.57,110.76 L393.07,109.67 L393.57,108.59 L394.07,107.51 L394.57,106.42 L395.08,105.34 L395.58,104.26 L396.08,103.18 L396.58,102.09 L397.08,101.01 L397.58,99.93 L398.08,98.84 L398.59,97.76 L399.09,96.68 L399.59,95.60 L400.09,94.51 L400.59,93.43 L401.09,92.35 L401.59,91.26 L402.09,90.18 L402.60,89.10 L403.10,88.01 L403.60,86.93 L404.10,85.85 L404.60,84.77 L405.10,83.68 L405.60,82.60 L406.11,81.52 L406.61,80.43 L407.11,79.35 L407.61,78.27 L408.11,77.19 L408.61,76.10 L409.11,75.02 L409.62,73.94 L410.12,72.85 L410.62,71.77 L411.12,70.69 L411.62,69.60 L412.12,68.52 L412.62,67.44 L413.12,66.36 L413.63,65.27 L414.13,64.19 L414.63,63.11 L415.13,62.02 L415.63,60.94 L416.13,59.86 L416.63,58.78 L417.14,57.69 L417.64,56.61 L418.14,55.53 L418.64,54.44 L419.14,53.36 L419.64,52.28 L420.14,51.19 L420.65,50.11 L421.15,49.03 L421.65,47.95 L422.15,46.86 L422.65,45.78 L423.15,44.70 L423.65,43.61 L424.15,42.53 L424.66,41.45 L425.16,40.36 L425.66,39.28 L426.16,38.20 L426.66,37.12 L427.16,36.03 L427.66,34.95 L428.17,33.87 L428.67,32.78 L429.17,31.70 L429.67,30.62 L430.17,29.54 L430.67,28.45 L431.17,27.37 L431.68,26.29 L432.18,25.20 L432.68,24.12 L433.18,23.04 L433.68,21.95 L434.18,20.87 L434.68,19.79 L435.18,18.71 L435.69,17.62 L436.19,16.54 L436.69,15.46 L437.19,14.37 L437.69,13.29 L438.19,12.21 L438.69,11.13 L439.20,10.04 L439.70,8.96 L440.20,7.88 L440.70,6.79 L441.20,5.71 L441.70,4.63 L442.20,3.54 L442.71,2.46 L443.21,1.38 L443.71,0.30 L444.21,-0.79 L444.71,-1.87 L445.21,-2.95 L445.71,-4.04 L446.21,-5.12 L446.72,-6.20 L447.22,-7.28 L447.72,-8.37 L448.22,-9.45 L448.72,-10.53 L449.22,-11.62 L449.72,-12.70 L450.23,-13.78 L450.73,-14.87 L451.23,-15.95 L451.73,-17.03 L452.23,-18.11 L452.73,-19.20 L453.23,-20.28 L453.74,-21.36 L454.24,-22.45 L454.74,-23.53 L455.24,-24.61 L455.74,-25.69 L456.24,-26.78 L456.74,-27.86 L457.24,-28.94 L457.75,-30.03 L458.25,-31.11 L458.75,-32.19 L459.25,-33.28 L459.75,-34.36 L460.25,-35.44 L460.75,-36.52 L461.26,-37.61 L461.76,-38.69 L462.26,-39.77 L462.76,-40.86 L463.26,-41.94 L463.76,-43.02 L464.26,-44.10 L464.77,-45.19 L465.27,-46.27 L465.77,-47.35 L466.27,-48.44 L466.77,-49.52 L467.27,-50.60 L467.77,-51.69 L468.27,-52.77 L468.78,-53.85 L469.28,-54.93 L469.78,-56.02 L470.28,-57.10 L470.78,-58.18 L471.28,-59.27 L471.78,-60.35 L472.29,-61.43 L472.79,-62.52 L473.29,-63.60 L473.79,-64.68 L474.29,-65.76 L474.79,-66.85 L475.29,-67.93 L475.80,-69.01 L476.30,-70.10 L476.80,-71.18 L477.30,-72.26 L477.80,-73.34 L478.30,-74.43 L478.80,-75.51 L479.30,-76.59 L479.81,-77.68 L480.31,-78.76 L480.81,-79.84 L481.31,-80.93 L481.81,-82.01 L482.31,-83.09 L482.81,-84.17 L483.32,-85.26 L483.82,-86.34 L484.32,-87.42 L484.82,-88.51 L485.32,-89.59 L485.82,-90.67 L486.32,-91.75 L486.83,-92.84 L487.33,-93.92 L487.83,-95.00 L488.33,-96.09 L488.83,-97.17 L489.33,-98.25 L489.83,-99.34 L490.33,-100.42 L490.84,-101.50 L491.34,-102.58 L491.84,-103.67 L492.34,-104.75 L492.84,-105.83 L493.34,-106.92 L493.84,-108.00 L494.35,-109.08 L494.85,-110.16 L495.35,-111.25 L495.85,-112.33 L496.35,-113.41 L496.85,-114.50 L497.35,-115.58 L497.86,-116.66 L498.36,-117.75 L498.86,-118.83 L499.36,-119.91 L499.86,-120.99 L500.36,-122.08 L500.86,-123.16 L501.36,-124.24 L501.87,-125.33 L502.37,-126.41 L502.87,-127.49 L503.37,-128.57 L503.87,-129.66 L504.37,-130.74 L504.87,-131.82 L505.38,-132.91 L505.88,-133.99 L506.38,-135.07 L506.88,-136.16 L507.38,-137.24 L507.88,-138.32 L508.38,-139.40 L508.89,-140.49 L509.39,-141.57 L509.89,-142.65 L510.39,-143.74 L510.89,-144.82 L511.39,-145.90 L511.89,-146.99 L512.39,-148.07 L512.90,-149.15 L513.40,-150.23 L513.90,-151.32 L514.40,-152.40 L514.90,-153.48 L515.40,-154.57 L515.90,-155.65 L516.41,-156.73 L516.91,-157.81 L517.41,-158.90 L517.91,-159.98 L518.41,-161.06 L518.91,-162.15 L519.41,-163.23 L519.92,-164.31 L520.42,-165.40 L520.92,-166.48 L521.42,-167.56 L521.92,-168.64 L522.42,-169.73 L522.92,-170.81 L523.42,-171.89 L523.93,-172.98 L524.43,-174.06 L524.93,-175.14 L525.43,-176.22 L525.93,-177.31 L526.43,-178.39 L526.93,-179.47 L527.44,-180.56 L527.94,-181.64 L528.44,-182.72 L528.94,-183.81 L529.44,-184.89 L529.94,-185.97 L530.44,-187.05 L530.95,-188.14 L531.45,-189.22 L531.95,-190.30 L532.45,-191.39 L532.95,-192.47 L533.45,-193.55 L533.95,-194.63 L534.45,-195.72 L534.96,-196.80 L535.46,-197.88 L535.96,-198.97 L536.46,-200.05 L536.96,-201.13 L537.46,-202.22 L537.96,-203.30 L538.47,-204.38 L538.97,-205.46 L539.47,-206.55 L539.97,-207.63 L540.47,-208.71 L540.97,-209.80 L541.47,-210.88 L541.98,-211.96 L542.48,-213.04 L542.98,-214.13 L543.48,-215.21 L543.98,-216.29 L544.48,-217.38 L544.98,-218.46 L545.48,-219.54 L545.99,-220.63 L546.49,-221.71 L546.99,-222.79 L547.49,-223.87 L547.99,-224.96 L548.49,-226.04 L548.99,-227.12 L549.50,-228.21 L550.00,-229.29 L550.50,-230.37 L551.00,-231.45" style="stroke-width: 2; stroke: rgba(245, 130, 49, 0.8); stroke-dasharray: 7.5, 6;"/><path d=" M386.32, 256.10 L386.32, 255.60 L386.32, 255.10 L386.32, 254.60 L386.32, 254.10 L386.32, 253.60 L386.32, 253.09 L386.32, 252.59 L386.32, 252.09 L386.32, 251.59 L386.32, 251.09 L386.32, 250.59 L386.32, 250.09 L386.32, 249.59 L386.32, 249.09 L386.32, 248.59 L386.32, 248.08 L386.32, 247.58 L386.32, 247.08 L386.32, 246.58 L386.32, 246.08 L386.32, 245.58 L386.32, 245.08 L386.32, 244.58 L386.32, 244.08 L386.32, 243.58 L386.32, 243.07 L386.32, 242.57 L386.32, 242.07 L386.32, 241.57 L386.32, 241.07 L386.32, 240.57 L386.32, 240.07 L386.32, 239.57 L386.32, 239.07 L386.32, 238.57 L386.32, 238.06 L386.32, 237.56 L386.32, 237.06 L386.32, 236.56 L386.32, 236.06 L386.32, 235.56 L386.32, 235.06 L386.32, 234.56 L386.32, 234.06 L386.32, 233.56 L386.32, 233.06 L386.32, 232.55 L386.32, 232.05 L386.32, 231.55 L386.32, 231.05 L386.32, 230.55 L386.32, 230.05 L386.32, 229.55 L386.32, 229.05 L386.32, 228.55 L386.32, 228.05 L386.32, 227.54 L386.32, 227.04 L386.32, 226.54 L386.32, 226.04 L386.32, 225.54 L386.32, 225.04 L386.32, 224.54 L386.32, 224.04 L386.32, 223.54 L386.32, 223.04 L386.32, 222.53 L386.32, 222.03 L386.32, 221.53 L386.32, 221.03 L386.32, 220.53 L386.32, 220.03 L386.32, 219.53 L386.32, 219.03 L386.32, 218.53 L386.32, 218.03 L386.32, 217.52 L386.32, 217.02 L386.32, 216.52 L386.32, 216.02 L386.32, 215.52 L386.32, 215.02 L386.32, 214.52 L386.32, 214.02 L386.32, 213.52 L386.32, 213.02 L386.32, 212.51 L386.32, 212.01 L386.32, 211.51 L386.32, 211.01 L386.32, 210.51 L386.32, 210.01 L386.32, 209.51 L386.32, 209.01 L386.32, 208.51 L386.32, 208.01 L386.32, 207.51 L386.32, 207.00 L386.32, 206.50 L386.32, 206.00 L386.32, 205.50 L386.32, 205.00 L386.32, 204.50 L386.32, 204.00 L386.32, 203.50 L386.32, 203.00 L386.32, 202.50 L386.32, 201.99 L386.32, 201.49 L386.32, 200.99 L386.32, 200.49 L386.32, 199.99 L386.32, 199.49 L386.32, 198.99 L386.32, 198.49 L386.32, 197.99 L386.32, 197.49 L386.32, 196.98 L386.32, 196.48 L386.32, 195.98 L386.32, 195.48 L386.32, 194.98 L386.32, 194.48 L386.32, 193.98 L386.32, 193.48 L386.32, 192.98 L386.32, 192.48 L386.32, 191.97 L386.32, 191.47 L386.32, 190.97 L386.32, 190.47 L386.32, 189.97 L386.32, 189.47 L386.32, 188.97 L386.32, 188.47 L386.32, 187.97 L386.32, 187.47 L386.32, 186.97 L386.32, 186.46 L386.32, 185.96 L386.32, 185.46 L386.32, 184.96 L386.32, 184.46 L386.32, 183.96 L386.32, 183.46 L386.32, 182.96 L386.32, 182.46 L386.32, 181.96 L386.32, 181.45 L386.32, 180.95 L386.32, 180.45 L386.32, 179.95 L386.32, 179.45 L386.32, 178.95 L386.32, 178.45 L386.32, 177.95 L386.32, 177.45 L386.32, 176.95 L386.32, 176.44 L386.32, 175.94 L386.32, 175.44 L386.32, 174.94 L386.32, 174.44 L386.32, 173.94 L386.32, 173.44 L386.32, 172.94 L386.32, 172.44 L386.32, 171.94 L386.32, 171.43 L386.32, 170.93 L386.32, 170.43 L386.32, 169.93 L386.32, 169.43 L386.32, 168.93 L386.32, 168.43 L386.32, 167.93 L386.32, 167.43 L386.32, 166.93 L386.32, 166.42 L386.32, 165.92 L386.32, 165.42 L386.32, 164.92 L386.32, 164.42 L386.32, 163.92 L386.32, 163.42 L386.32, 162.92 L386.32, 162.42 L386.32, 161.92 L386.32, 161.42 L386.32, 160.91 L386.32, 160.41 L386.32, 159.91 L386.32, 159.41 L386.32, 158.91 L386.32, 158.41 L386.32, 157.91 L386.32, 157.41 L386.32, 156.91 L386.32, 156.41 L386.32, 155.90 L386.32, 155.40 L386.32, 154.90 L386.32, 154.40 L386.32, 153.90 L386.32, 153.40 L386.32, 152.90 L386.32, 152.40 L386.32, 151.90 L386.32, 151.40 L386.32, 150.89 L386.32, 150.39 L386.32, 149.89 L386.32, 149.39 L386.32, 148.89 L386.32, 148.39 L386.32, 147.89 L386.32, 147.39 L386.32, 146.89 L386.32, 146.39 L386.32, 145.88 L386.32, 145.38 L386.32, 144.88 L386.32, 144.38 L386.32, 143.88 L386.32, 143.38 L386.32, 142.88 L386.32, 142.38 L386.32, 141.88 L386.32, 141.38 L386.32, 140.88 L386.32, 140.37 L386.32, 139.87 L386.32, 139.37 L386.32, 138.87 L386.32, 138.37 L386.32, 137.87 L386.32, 137.37 L386.32, 136.87 L386.32, 136.37 L386.32, 135.87 L386.32, 135.36 L386.32, 134.86 L386.32, 134.36 L386.32, 133.86 L386.32, 133.36 L386.32, 132.86 L386.32, 132.36 L386.32, 131.86 L386.32, 131.36 L386.32, 130.86 L386.32, 130.35 L386.32, 129.85 L386.32, 129.35 L386.32, 128.85 L386.32, 128.35 L386.32, 127.85 L386.32, 127.35 L386.32, 126.85 L386.32, 126.35 L386.32, 125.85 L386.32, 125.34 L386.32, 124.84 L386.32, 124.34 L386.32, 123.84 L386.32, 123.34 L386.32, 122.84 L386.32, 122.34 L386.32, 121.84 L386.32, 121.34 L386.32, 120.84 L386.32, 120.33 L386.32, 119.83 L386.32, 119.33 L386.32, 118.83 L386.32, 118.33 L386.32, 117.83 L386.32, 117.33 L386.32, 116.83 L386.32, 116.33 L386.32, 115.83 L386.32, 115.33 L386.32, 114.82 L386.32, 114.32 L386.32, 113.82 L386.32, 113.32 L386.32, 112.82 L386.32, 112.32 L386.32, 111.82 L386.32, 111.32 L386.32, 110.82 L386.32, 110.32 L386.32, 109.81 L386.32, 109.31 L386.32, 108.81 L386.32, 108.31 L386.32, 107.81 L386.32, 107.31 L386.32, 106.81 L386.32, 106.31 L386.32, 105.81 L386.32, 105.31 L386.32, 104.80 L386.32, 104.30 L386.32, 103.80 L386.32, 103.30 L386.32, 102.80 L386.32, 102.30 L386.32, 101.80 L386.32, 101.30 L386.32, 100.80 L386.32, 100.30 L386.32, 99.79 L386.32, 99.29 L386.32, 98.79 L386.32, 98.29 L386.32, 97.79 L386.32, 97.29 L386.32, 96.79 L386.32, 96.29 L386.32, 95.79 L386.32, 95.29 L386.32, 94.79 L386.32, 94.28 L386.32, 93.78 L386.32, 93.28 L386.32, 92.78 L386.32, 92.28 L386.32, 91.78 L386.32, 91.28 L386.32, 90.78 L386.32, 90.28 L386.32, 89.78 L386.32, 89.27 L386.32, 88.77 L386.32, 88.27 L386.32, 87.77 L386.32, 87.27 L386.32, 86.77 L386.32, 86.27 L386.32, 85.77 L386.32, 85.27 L386.32, 84.77 L386.32, 84.26 L386.32, 83.76 L386.32, 83.26 L386.32, 82.76 L386.32, 82.26 L386.32, 81.76 L386.32, 81.26 L386.32, 80.76 L386.32, 80.26 L386.32, 79.76 L386.32, 79.25 L386.32, 78.75 L386.32, 78.25 L386.32, 77.75 L386.32, 77.25 L386.32, 76.75 L386.32, 76.25 L386.32, 75.75 L386.32, 75.25 L386.32, 74.75 L386.32, 74.24 L386.32, 73.74 L386.32, 73.24 L386.32, 72.74 L386.32, 72.24 L386.32, 71.74 L386.32, 71.24 L386.32, 70.74 L386.32, 70.24 L386.32, 69.74 L386.32, 69.24 L386.32, 68.73 L386.32, 68.23 L386.32, 67.73 L386.32, 67.23 L386.32, 66.73 L386.32, 66.23 L386.32, 65.73 L386.32, 65.23 L386.32, 64.73 L386.32, 64.23 L386.32, 63.72 L386.32, 63.22 L386.32, 62.72 L386.32, 62.22 L386.32, 61.72 L386.32, 61.22 L386.32, 60.72 L386.32, 60.22 L386.32, 59.72 L386.32, 59.22 L386.32, 58.71 L386.32, 58.21 L386.32, 57.71 L386.32, 57.21 L386.32, 56.71 L386.32, 56.21 L386.32, 55.71 L386.32, 55.21 L386.32, 54.71 L386.32, 54.21 L386.32, 53.70 L386.32, 53.20 L386.32, 52.70 L386.32, 52.20 L386.32, 51.70 L386.32, 51.20 L386.32, 50.70 L386.32, 50.20 L386.32, 49.70 L386.32, 49.20 L386.32, 48.70 L386.32, 48.19 L386.32, 47.69 L386.32, 47.19 L386.32, 46.69 L386.32, 46.19 L386.32, 45.69 L386.32, 45.19 L386.32, 44.69 L386.32, 44.19 L386.32, 43.69 L386.32, 43.18 L386.32, 42.68 L386.32, 42.18 L386.32, 41.68 L386.32, 41.18 L386.32, 40.68 L386.32, 40.18 L386.32, 39.68 L386.32, 39.18 L386.32, 38.68 L386.32, 38.17 L386.32, 37.67 L386.32, 37.17 L386.32, 36.67 L386.32, 36.17 L386.32, 35.67 L386.32, 35.17 L386.32, 34.67 L386.32, 34.17 L386.32, 33.67 L386.32, 33.16 L386.32, 32.66 L386.32, 32.16 L386.32, 31.66 L386.32, 31.16 L386.32, 30.66 L386.32, 30.16 L386.32, 29.66 L386.32, 29.16 L386.32, 28.66 L386.32, 28.15 L386.32, 27.65 L386.32, 27.15 L386.32, 26.65 L386.32, 26.15 L386.32, 25.65 L386.32, 25.15 L386.32, 24.65 L386.32, 24.15 L386.32, 23.65 L386.32, 23.15 L386.32, 22.64 L386.32, 22.14 L386.32, 21.64 L386.32, 21.14 L386.32, 20.64 L386.32, 20.14 L386.32, 19.64 L386.32, 19.14 L386.32, 18.64 L386.32, 18.14 L386.32, 17.63 L386.32, 17.13 L386.32, 16.63 L386.32, 16.13 L386.32, 15.63 L386.32, 15.13 L386.32, 14.63 L386.32, 14.13 L386.32, 13.63 L386.32, 13.13 L386.32, 12.62 L386.32, 12.12 L386.32, 11.62 L386.32, 11.12 L386.32, 10.62 L386.32, 10.12 L386.32, 9.62 L386.32, 9.12 L386.32, 8.62 L386.32, 8.12 L386.32, 7.61 L386.32, 7.11 L386.32, 6.61 L386.32, 6.11 L386.32, 5.61 L386.32, 5.11 L386.32, 4.61 L386.32, 4.11 L386.32, 3.61 L386.32, 3.11 L386.32, 2.61 L386.32, 2.10 L386.32, 1.60 L386.32, 1.10 L386.32, 0.60 L386.32, 0.10 L386.32, 0.00" style="stroke-width: 1; stroke: rgb(126, 211, 33); stroke-dasharray: 1.125, 3.35;"/><path d=" M363.18, 256.10 L363.18, 255.60 L363.18, 255.10 L363.18, 254.60 L363.18, 254.10 L363.18, 253.60 L363.18, 253.09 L363.18, 252.59 L363.18, 252.09 L363.18, 251.59 L363.18, 251.09 L363.18, 250.59 L363.18, 250.09 L363.18, 249.59 L363.18, 249.09 L363.18, 248.59 L363.18, 248.08 L363.18, 247.58 L363.18, 247.08 L363.18, 246.58 L363.18, 246.08 L363.18, 245.58 L363.18, 245.08 L363.18, 244.58 L363.18, 244.08 L363.18, 243.58 L363.18, 243.07 L363.18, 242.57 L363.18, 242.07 L363.18, 241.57 L363.18, 241.07 L363.18, 240.57 L363.18, 240.07 L363.18, 239.57 L363.18, 239.07 L363.18, 238.57 L363.18, 238.06 L363.18, 237.56 L363.18, 237.06 L363.18, 236.56 L363.18, 236.06 L363.18, 235.56 L363.18, 235.06 L363.18, 234.56 L363.18, 234.06 L363.18, 233.56 L363.18, 233.06 L363.18, 232.55 L363.18, 232.05 L363.18, 231.55 L363.18, 231.05 L363.18, 230.55 L363.18, 230.05 L363.18, 229.55 L363.18, 229.05 L363.18, 228.55 L363.18, 228.05 L363.18, 227.54 L363.18, 227.04 L363.18, 226.54 L363.18, 226.04 L363.18, 225.54 L363.18, 225.04 L363.18, 224.54 L363.18, 224.04 L363.18, 223.54 L363.18, 223.04 L363.18, 222.53 L363.18, 222.03 L363.18, 221.53 L363.18, 221.03 L363.18, 220.53 L363.18, 220.03 L363.18, 219.53 L363.18, 219.03 L363.18, 218.53 L363.18, 218.03 L363.18, 217.52 L363.18, 217.02 L363.18, 216.52 L363.18, 216.02 L363.18, 215.52 L363.18, 215.02 L363.18, 214.52 L363.18, 214.02 L363.18, 213.52 L363.18, 213.02 L363.18, 212.51 L363.18, 212.01 L363.18, 211.51 L363.18, 211.01 L363.18, 210.51 L363.18, 210.01 L363.18, 209.51 L363.18, 209.01 L363.18, 208.51 L363.18, 208.01 L363.18, 207.51 L363.18, 207.00 L363.18, 206.50 L363.18, 206.00 L363.18, 205.50 L363.18, 205.00 L363.18, 204.50 L363.18, 204.00 L363.18, 203.50 L363.18, 203.00 L363.18, 202.50 L363.18, 201.99 L363.18, 201.49 L363.18, 200.99 L363.18, 200.49 L363.18, 199.99 L363.18, 199.49 L363.18, 198.99 L363.18, 198.49 L363.18, 197.99 L363.18, 197.49 L363.18, 196.98 L363.18, 196.48 L363.18, 195.98 L363.18, 195.48 L363.18, 194.98 L363.18, 194.48 L363.18, 193.98 L363.18, 193.48 L363.18, 192.98 L363.18, 192.48 L363.18, 191.97 L363.18, 191.47 L363.18, 190.97 L363.18, 190.47 L363.18, 189.97 L363.18, 189.47 L363.18, 188.97 L363.18, 188.47 L363.18, 187.97 L363.18, 187.47 L363.18, 186.97 L363.18, 186.46 L363.18, 185.96 L363.18, 185.46 L363.18, 184.96 L363.18, 184.46 L363.18, 183.96 L363.18, 183.46 L363.18, 182.96 L363.18, 182.46 L363.18, 181.96 L363.18, 181.45 L363.18, 180.95 L363.18, 180.45 L363.18, 179.95 L363.18, 179.45 L363.18, 178.95 L363.18, 178.45 L363.18, 177.95 L363.18, 177.45 L363.18, 176.95 L363.18, 176.44 L363.18, 175.94 L363.18, 175.44 L363.18, 174.94 L363.18, 174.44 L363.18, 173.94 L363.18, 173.44 L363.18, 172.94 L363.18, 172.44 L363.18, 171.94 L363.18, 171.43 L363.18, 170.93 L363.18, 170.43 L363.18, 169.93 L363.18, 169.43 L363.18, 168.93 L363.18, 168.43 L363.18, 167.93 L363.18, 167.43 L363.18, 166.93 L363.18, 166.42 L363.18, 165.92 L363.18, 165.42 L363.18, 164.92 L363.18, 164.42 L363.18, 163.92 L363.18, 163.42 L363.18, 162.92 L363.18, 162.42 L363.18, 161.92 L363.18, 161.42 L363.18, 160.91 L363.18, 160.41 L363.18, 159.91 L363.18, 159.41 L363.18, 158.91 L363.18, 158.41 L363.18, 157.91 L363.18, 157.41 L363.18, 156.91 L363.18, 156.41 L363.18, 155.90 L363.18, 155.40 L363.18, 154.90 L363.18, 154.40 L363.18, 153.90 L363.18, 153.40 L363.18, 152.90 L363.18, 152.40 L363.18, 151.90 L363.18, 151.40 L363.18, 150.89 L363.18, 150.39 L363.18, 149.89 L363.18, 149.39 L363.18, 148.89 L363.18, 148.39 L363.18, 147.89 L363.18, 147.39 L363.18, 146.89 L363.18, 146.39 L363.18, 145.88 L363.18, 145.38 L363.18, 144.88 L363.18, 144.38 L363.18, 143.88 L363.18, 143.38 L363.18, 142.88 L363.18, 142.38 L363.18, 141.88 L363.18, 141.38 L363.18, 140.88 L363.18, 140.37 L363.18, 139.87 L363.18, 139.37 L363.18, 138.87 L363.18, 138.37 L363.18, 137.87 L363.18, 137.37 L363.18, 136.87 L363.18, 136.37 L363.18, 135.87 L363.18, 135.36 L363.18, 134.86 L363.18, 134.36 L363.18, 133.86 L363.18, 133.36 L363.18, 132.86 L363.18, 132.36 L363.18, 131.86 L363.18, 131.36 L363.18, 130.86 L363.18, 130.35 L363.18, 129.85 L363.18, 129.35 L363.18, 128.85 L363.18, 128.35 L363.18, 127.85 L363.18, 127.35 L363.18, 126.85 L363.18, 126.35 L363.18, 125.85 L363.18, 125.34 L363.18, 124.84 L363.18, 124.34 L363.18, 123.84 L363.18, 123.34 L363.18, 122.84 L363.18, 122.34 L363.18, 121.84 L363.18, 121.34 L363.18, 120.84 L363.18, 120.33 L363.18, 119.83 L363.18, 119.33 L363.18, 118.83 L363.18, 118.33 L363.18, 117.83 L363.18, 117.33 L363.18, 116.83 L363.18, 116.33 L363.18, 115.83 L363.18, 115.33 L363.18, 114.82 L363.18, 114.32 L363.18, 113.82 L363.18, 113.32 L363.18, 112.82 L363.18, 112.32 L363.18, 111.82 L363.18, 111.32 L363.18, 110.82 L363.18, 110.32 L363.18, 109.81 L363.18, 109.31 L363.18, 108.81 L363.18, 108.31 L363.18, 107.81 L363.18, 107.31 L363.18, 106.81 L363.18, 106.31 L363.18, 105.81 L363.18, 105.31 L363.18, 104.80 L363.18, 104.30 L363.18, 103.80 L363.18, 103.30 L363.18, 102.80 L363.18, 102.30 L363.18, 101.80 L363.18, 101.30 L363.18, 100.80 L363.18, 100.30 L363.18, 99.79 L363.18, 99.29 L363.18, 98.79 L363.18, 98.29 L363.18, 97.79 L363.18, 97.29 L363.18, 96.79 L363.18, 96.29 L363.18, 95.79 L363.18, 95.29 L363.18, 94.79 L363.18, 94.28 L363.18, 93.78 L363.18, 93.28 L363.18, 92.78 L363.18, 92.28 L363.18, 91.78 L363.18, 91.28 L363.18, 90.78 L363.18, 90.28 L363.18, 89.78 L363.18, 89.27 L363.18, 88.77 L363.18, 88.27 L363.18, 87.77 L363.18, 87.27 L363.18, 86.77 L363.18, 86.27 L363.18, 85.77 L363.18, 85.27 L363.18, 84.77 L363.18, 84.26 L363.18, 83.76 L363.18, 83.26 L363.18, 82.76 L363.18, 82.26 L363.18, 81.76 L363.18, 81.26 L363.18, 80.76 L363.18, 80.26 L363.18, 79.76 L363.18, 79.25 L363.18, 78.75 L363.18, 78.25 L363.18, 77.75 L363.18, 77.25 L363.18, 76.75 L363.18, 76.25 L363.18, 75.75 L363.18, 75.25 L363.18, 74.75 L363.18, 74.24 L363.18, 73.74 L363.18, 73.24 L363.18, 72.74 L363.18, 72.24 L363.18, 71.74 L363.18, 71.24 L363.18, 70.74 L363.18, 70.24 L363.18, 69.74 L363.18, 69.24 L363.18, 68.73 L363.18, 68.23 L363.18, 67.73 L363.18, 67.23 L363.18, 66.73 L363.18, 66.23 L363.18, 65.73 L363.18, 65.23 L363.18, 64.73 L363.18, 64.23 L363.18, 63.72 L363.18, 63.22 L363.18, 62.72 L363.18, 62.22 L363.18, 61.72 L363.18, 61.22 L363.18, 60.72 L363.18, 60.22 L363.18, 59.72 L363.18, 59.22 L363.18, 58.71 L363.18, 58.21 L363.18, 57.71 L363.18, 57.21 L363.18, 56.71 L363.18, 56.21 L363.18, 55.71 L363.18, 55.21 L363.18, 54.71 L363.18, 54.21 L363.18, 53.70 L363.18, 53.20 L363.18, 52.70 L363.18, 52.20 L363.18, 51.70 L363.18, 51.20 L363.18, 50.70 L363.18, 50.20 L363.18, 49.70 L363.18, 49.20 L363.18, 48.70 L363.18, 48.19 L363.18, 47.69 L363.18, 47.19 L363.18, 46.69 L363.18, 46.19 L363.18, 45.69 L363.18, 45.19 L363.18, 44.69 L363.18, 44.19 L363.18, 43.69 L363.18, 43.18 L363.18, 42.68 L363.18, 42.18 L363.18, 41.68 L363.18, 41.18 L363.18, 40.68 L363.18, 40.18 L363.18, 39.68 L363.18, 39.18 L363.18, 38.68 L363.18, 38.17 L363.18, 37.67 L363.18, 37.17 L363.18, 36.67 L363.18, 36.17 L363.18, 35.67 L363.18, 35.17 L363.18, 34.67 L363.18, 34.17 L363.18, 33.67 L363.18, 33.16 L363.18, 32.66 L363.18, 32.16 L363.18, 31.66 L363.18, 31.16 L363.18, 30.66 L363.18, 30.16 L363.18, 29.66 L363.18, 29.16 L363.18, 28.66 L363.18, 28.15 L363.18, 27.65 L363.18, 27.15 L363.18, 26.65 L363.18, 26.15 L363.18, 25.65 L363.18, 25.15 L363.18, 24.65 L363.18, 24.15 L363.18, 23.65 L363.18, 23.15 L363.18, 22.64 L363.18, 22.14 L363.18, 21.64 L363.18, 21.14 L363.18, 20.64 L363.18, 20.14 L363.18, 19.64 L363.18, 19.14 L363.18, 18.64 L363.18, 18.14 L363.18, 17.63 L363.18, 17.13 L363.18, 16.63 L363.18, 16.13 L363.18, 15.63 L363.18, 15.13 L363.18, 14.63 L363.18, 14.13 L363.18, 13.63 L363.18, 13.13 L363.18, 12.62 L363.18, 12.12 L363.18, 11.62 L363.18, 11.12 L363.18, 10.62 L363.18, 10.12 L363.18, 9.62 L363.18, 9.12 L363.18, 8.62 L363.18, 8.12 L363.18, 7.61 L363.18, 7.11 L363.18, 6.61 L363.18, 6.11 L363.18, 5.61 L363.18, 5.11 L363.18, 4.61 L363.18, 4.11 L363.18, 3.61 L363.18, 3.11 L363.18, 2.61 L363.18, 2.10 L363.18, 1.60 L363.18, 1.10 L363.18, 0.60 L363.18, 0.10 L363.18, 0.00" style="stroke-width: 1; stroke: rgb(126, 211, 33); stroke-dasharray: 1.125, 3.35;"/></g></g><g class="test-xtl" style="font-family: &quot;Open Sans&quot;, verdana, arial, sans-serif;"><text text-anchor="middle" font-size="12" dominant-baseline="hanging" stroke="none" fill="rgb(50,50,50)" x="62.7425762950285" y="239.56907860172544">-6</text><text text-anchor="middle" font-size="12" dominant-baseline="hanging" stroke="none" fill="rgb(50,50,50)" x="139.88870986682116" y="239.56907860172544">-4</text><text text-anchor="middle" font-size="12" dominant-baseline="hanging" stroke="none" fill="rgb(50,50,50)" x="217.0348434386138" y="239.56907860172544">-2</text><text text-anchor="middle" font-size="12" dominant-baseline="hanging" stroke="none" fill="rgb(50,50,50)" x="374.74711058219907" y="239.56907860172544">2</text><text text-anchor="middle" font-size="12" dominant-baseline="hanging" stroke="none" fill="rgb(50,50,50)" x="451.89324415399176" y="239.56907860172544">4</text><text text-anchor="middle" font-size="12" dominant-baseline="hanging" stroke="none" fill="rgb(50,50,50)" x="529.0393777257843" y="239.56907860172544">6</text><text text-anchor="middle" font-size="12" dominant-baseline="hanging" stroke="none" fill="rgb(50,50,50)" x="289.60097701040644" y="237.56907860172544">0</text></g><g class="test-ytl" style="font-family: &quot;Open Sans&quot;, verdana, arial, sans-serif;"><text text-anchor="end" dominant-baseline="middle" font-size="11" stroke="none" fill="rgb(50,50,50)" x="289.60097701040644" y="24.27451795788531">10</text></g><rect class="real" x="1" y="1" width="549" height="254.10000000000002" style="fill: transparent; stroke: none;"/></g></g></g><g class="composite-shape"><path class="real" d=" M425.8,190.64 C426.75,189.61 426.69,188.01 425.67,187.05 C424.64,186.1 423.04,186.16 422.08,187.19 C421.13,188.21 421.19,189.82 422.22,190.77 C423.24,191.72 424.85,191.66 425.8,190.64 Z" style="stroke-width: 1; stroke: rgb(0, 0, 0); fill: none;"/></g><g class="arrow-line"><path class="connection real" stroke-dasharray="" d="  M424.33,272.5 L435.67,272.5" style="stroke: rgb(126, 211, 33); stroke-width: 1; fill: none;"/><g stroke="rgba(126,211,33,1)" transform="matrix(-1,1.2246467991473532e-16,-1.2246467991473532e-16,-1,437.6666666666666,272.50000000000006)" style="stroke: rgb(126, 211, 33); stroke-width: 1;"><path d=" M10.93,-3.29 Q4.96,-0.45 0,0 Q4.96,0.45 10.93,3.29"/></g></g><g class="arrow-line"><path class="connection real" stroke-dasharray="" d="  M422.67,272.5 L414,272.77" style="stroke: rgb(126, 211, 33); stroke-width: 1; fill: none;"/><g stroke="rgba(126,211,33,1)" transform="matrix(0.9995120273540129,-0.03123631179686327,0.03123631179686327,0.9995120273540129,412,272.8333333333333)" style="stroke: rgb(126, 211, 33); stroke-width: 1;"><path d=" M10.93,-3.29 Q4.96,-0.45 0,0 Q4.96,0.45 10.93,3.29"/></g></g><g class="arrow-line"><path class="connection real" stroke-dasharray="" d="  M423.33,193.17 L413.23,213.38" style="stroke: rgb(245, 166, 35); stroke-width: 1; fill: none;"/><g stroke="rgba(245,166,35,1)" transform="matrix(0.4472908484187096,-0.8943885603700837,0.8943885603700837,0.4472908484187096,412.3333333333333,215.16666666666663)" style="stroke: rgb(245, 166, 35); stroke-width: 1;"><path d=" M10.93,-3.29 Q4.96,-0.45 0,0 Q4.96,0.45 10.93,3.29"/></g></g><g class="arrow-line"><path class="connection real" stroke-dasharray="" d="  M425.67,187.05 L434.5,167.65" style="stroke: rgb(245, 166, 35); stroke-width: 1; fill: none;"/><g stroke="rgba(245,166,35,1)" transform="matrix(-0.4145344181384808,0.9100336346413748,-0.9100336346413748,-0.4145344181384808,435.3333333333333,165.83333333333331)" style="stroke: rgb(245, 166, 35); stroke-width: 1;"><path d=" M10.93,-3.29 Q4.96,-0.45 0,0 Q4.96,0.45 10.93,3.29"/></g></g><g/></g><g/><g/><g/></svg>
        <svg xmlns="http://www.w3.org/2000/svg" width="700" height="310" style="width:700px;height:310px;font-family:Asana-Math, Asana;background:#FFF;"><g><g><text x="377.4921875" y="179" style="white-space:pre;stroke:none;fill:rgb(0, 0, 0);font-size:15px;font-family:Arial, Helvetica, sans-serif;font-weight:400;font-style:normal;dominant-baseline:text-before-edge;text-decoration:none solid rgb(0, 0, 0);">(2, 4)</text></g></g><g><g><text x="388.859375" y="69.828125" style="white-space:pre;stroke:none;fill:rgb(126, 211, 33);font-size:15px;font-family:Arial, Helvetica, sans-serif;font-weight:400;font-style:normal;dominant-baseline:text-before-edge;text-decoration:none solid rgb(126, 211, 33);">x = 2</text></g></g><g><g><g style="transform:matrix(1,0,0,1,210.7734375,181.6640625);"><path d="M-7 -180C-8 -187 -8 -193 -8 -198C-8 -241 29 -276 74 -276C180 -276 290 -152 349 33L490 473L479 482C450 471 427 465 405 463L370 331C358 284 323 211 290 162C255 111 206 67 184 67C172 67 163 90 164 115L180 322C182 353 184 391 184 419C184 464 177 482 160 482C147 482 133 475 85 442L3 386L14 368L64 398C69 401 80 410 89 410C103 410 111 391 111 358C111 357 111 351 110 343L93 100L92 60C92 18 110 -11 135 -11C172 -11 256 74 331 187L282 16C231 -161 181 -234 111 -234C76 -234 49 -207 49 -172C49 -167 50 -159 51 -150L41 -146Z" stroke="rgb(74, 144, 226)" stroke-width="8" fill="rgb(74, 144, 226)" style="transform:matrix(0.017,0,0,-0.017,0,0);"></path></g><g style="transform:matrix(1,0,0,1,224.3515625,181.6640625);"><path d="M604 347L604 406L65 406L65 347ZM604 134L604 193L65 193L65 134Z" stroke="rgb(74, 144, 226)" stroke-width="8" fill="rgb(74, 144, 226)" style="transform:matrix(0.017,0,0,-0.017,0,0);"></path></g><g style="transform:matrix(1,0,0,1,240.8046875,181.6640625);"><path d="M9 1C24 -7 40 -11 52 -11C85 -11 124 18 155 65L231 182L242 113C255 28 278 -11 314 -11C336 -11 368 6 400 35L449 79L440 98C404 68 379 53 363 53C348 53 335 63 325 83C316 102 305 139 300 168L282 269L317 318C364 383 391 406 422 406C438 406 450 398 455 383L469 387L484 472C472 479 463 482 454 482C414 482 374 446 312 354L275 299L269 347C257 446 230 482 171 482C145 482 123 474 114 461L56 378L73 368C103 402 123 416 142 416C175 416 197 375 214 277L225 215L185 153C142 86 108 54 80 54C65 54 54 58 52 63L41 91L21 88C21 53 13 27 9 1Z" stroke="rgb(74, 144, 226)" stroke-width="8" fill="rgb(74, 144, 226)" style="transform:matrix(0.017,0,0,-0.017,0,0);"></path></g><g><g><g><g style="transform:matrix(1,0,0,1,250.2578125,175.2359375);"><path d="M16 23L16 -3C203 -3 203 0 239 0C275 0 275 -3 468 -3L468 82C353 77 307 81 122 77L304 270C401 373 431 428 431 503C431 618 353 689 226 689C154 689 105 669 56 619L39 483L68 483L81 529C97 587 133 612 200 612C286 612 341 558 341 473C341 398 299 324 186 204Z" stroke="rgb(74, 144, 226)" stroke-width="8" fill="rgb(74, 144, 226)" style="transform:matrix(0.0119,0,0,-0.0119,0,0);"></path></g></g></g></g></g></g><g><g><g style="transform:matrix(1,0,0,1,506.484375,86);"><path d="M-7 -180C-8 -187 -8 -193 -8 -198C-8 -241 29 -276 74 -276C180 -276 290 -152 349 33L490 473L479 482C450 471 427 465 405 463L370 331C358 284 323 211 290 162C255 111 206 67 184 67C172 67 163 90 164 115L180 322C182 353 184 391 184 419C184 464 177 482 160 482C147 482 133 475 85 442L3 386L14 368L64 398C69 401 80 410 89 410C103 410 111 391 111 358C111 357 111 351 110 343L93 100L92 60C92 18 110 -11 135 -11C172 -11 256 74 331 187L282 16C231 -161 181 -234 111 -234C76 -234 49 -207 49 -172C49 -167 50 -159 51 -150L41 -146Z" stroke="rgb(245, 166, 35)" stroke-width="8" fill="rgb(245, 166, 35)" style="transform:matrix(0.017,0,0,-0.017,0,0);"></path></g><g style="transform:matrix(1,0,0,1,524.296875,86);"><path d="M604 347L604 406L65 406L65 347ZM604 134L604 193L65 193L65 134Z" stroke="rgb(245, 166, 35)" stroke-width="8" fill="rgb(245, 166, 35)" style="transform:matrix(0.017,0,0,-0.017,0,0);"></path></g><g style="transform:matrix(1,0,0,1,540.75,86);"><path d="M529 181L529 106C529 46 518 32 469 30L407 27L407 -3C540 0 540 0 564 0C588 0 588 0 721 -3L721 27L673 30C624 33 613 46 613 106L613 181C672 181 693 180 721 177L721 248L613 245L614 697L534 667L251 204L251 181ZM529 245L314 245L529 597ZM757 1C772 -7 788 -11 800 -11C833 -11 872 18 903 65L979 182L990 113C1003 28 1026 -11 1062 -11C1084 -11 1116 6 1148 35L1197 79L1188 98C1152 68 1127 53 1111 53C1096 53 1083 63 1073 83C1064 102 1053 139 1048 168L1030 269L1065 318C1112 383 1139 406 1170 406C1186 406 1198 398 1203 383L1217 387L1232 472C1220 479 1211 482 1202 482C1162 482 1122 446 1060 354L1023 299L1017 347C1005 446 978 482 919 482C893 482 871 474 862 461L804 378L821 368C851 402 871 416 890 416C923 416 945 375 962 277L973 215L933 153C890 86 856 54 828 54C813 54 802 58 800 63L789 91L769 88C769 53 761 27 757 1Z" stroke="rgb(245, 166, 35)" stroke-width="8" fill="rgb(245, 166, 35)" style="transform:matrix(0.017,0,0,-0.017,0,0);"></path></g><g style="transform:matrix(1,0,0,1,565.34375,86);"><path d="M555 243L555 299L51 299L51 243Z" stroke="rgb(245, 166, 35)" stroke-width="8" fill="rgb(245, 166, 35)" style="transform:matrix(0.017,0,0,-0.017,0,0);"></path></g><g style="transform:matrix(1,0,0,1,579.03125,86);"><path d="M280 181L280 106C280 46 269 32 220 30L158 27L158 -3C291 0 291 0 315 0C339 0 339 0 472 -3L472 27L424 30C375 33 364 46 364 106L364 181C423 181 444 180 472 177L472 248L364 245L365 697L285 667L2 204L2 181ZM280 245L65 245L280 597Z" stroke="rgb(245, 166, 35)" stroke-width="8" fill="rgb(245, 166, 35)" style="transform:matrix(0.017,0,0,-0.017,0,0);"></path></g></g></g></svg>
</svg>
